<svg width="242" height="204" viewBox="0 0 242 204" fill="none" xmlns="http://www.w3.org/2000/svg">
<path d="M197.094 98.3699C197.094 101.234 196.974 104.069 196.732 106.875C196.543 109.065 196.283 111.236 195.955 113.387C195.606 115.664 195.178 117.914 194.672 120.137V120.139C194.341 121.602 193.977 123.053 193.581 124.492C192.432 128.675 191.003 132.776 189.303 136.768C188.933 137.636 188.552 138.498 188.158 139.355C186.669 142.598 185.002 145.758 183.164 148.818C178.01 157.412 171.576 165.173 164.084 171.835C163.273 172.555 162.451 173.263 161.617 173.958C143.927 188.71 121.598 196.775 98.5472 196.74C44.1204 196.74 0 152.699 0 98.37C0 44.0411 44.1204 0.000121838 98.5472 0.000121838C120.805 -0.0349099 142.413 7.48543 159.824 21.3264C160.64 21.9719 161.445 22.632 162.241 23.3066C166.123 26.5932 169.747 30.1731 173.079 34.0146H173.081C188.601 51.8724 197.129 74.729 197.094 98.3699Z" fill="#F2F2F2"/>
<path d="M29.0908 115.362C19.7031 109.785 12.6175 99.3616 13.5374 88.4954C22.1201 96.6951 33.3318 101.6 45.1888 102.343C49.7625 102.612 54.8778 102.437 58.2446 105.539C60.3396 107.469 61.3148 110.375 61.4747 113.216C61.6346 116.058 61.0644 118.884 60.4972 121.673L60.6924 122.356C49.7678 122.397 38.4786 120.939 29.0908 115.362Z" fill="#E6E6E6"/>
<path d="M13.7667 88.4836C17.5282 96.6919 23.785 103.508 31.6485 107.965C33.339 108.91 35.1362 109.721 37.046 110.097C38.9104 110.45 40.8354 110.298 42.621 109.656C44.2978 109.092 45.9476 108.321 47.7328 108.173C49.6144 108.017 51.3564 108.742 52.725 110.011C54.3996 111.564 55.4153 113.625 56.3384 115.675C57.3633 117.951 58.3918 120.331 60.3569 121.967C60.595 122.166 60.2729 122.523 60.0351 122.325C56.6161 119.477 56.0581 114.708 53.3251 111.355C52.0499 109.79 50.2944 108.599 48.209 108.63C46.3855 108.658 44.6835 109.452 42.9906 110.038C41.213 110.654 39.4322 110.943 37.5556 110.672C35.6359 110.395 33.8031 109.652 32.0958 108.755C28.2396 106.691 24.7324 104.035 21.7027 100.884C18.2249 97.3074 15.3858 93.1629 13.3081 88.6302C13.1796 88.3496 13.6391 88.2049 13.7667 88.4836H13.7667Z" fill="white"/>
<path d="M29.0319 106.679C28.1037 107.895 26.7729 108.741 25.2772 109.068C23.7815 109.394 22.2182 109.179 20.8666 108.461C20.5936 108.315 20.8084 107.885 21.0817 108.031C22.3391 108.702 23.7953 108.902 25.1875 108.595C26.5797 108.288 27.8162 107.495 28.6737 106.358C28.8604 106.111 29.2175 106.434 29.0319 106.679L29.0319 106.679Z" fill="white"/>
<path d="M41.8085 110.054C41.4178 106.955 39.8711 104.116 37.4768 102.104C37.2394 101.905 37.5615 101.547 37.7986 101.746C40.2863 103.845 41.8899 106.802 42.2893 110.029C42.3271 110.336 41.8461 110.36 41.8085 110.054V110.054Z" fill="white"/>
<path d="M18.8219 97.0823C19.2792 96.6867 19.6309 96.1839 19.8455 95.6191C20.06 95.0543 20.1307 94.4452 20.0511 93.8464C20.0093 93.5395 20.4904 93.5158 20.5319 93.8208C20.6167 94.4828 20.5379 95.1554 20.3022 95.7799C20.0666 96.4045 19.6813 96.9619 19.1801 97.4035C19.1363 97.4491 19.0768 97.4764 19.0137 97.4797C18.9505 97.4831 18.8884 97.4623 18.8401 97.4217C18.7929 97.3789 18.7645 97.3193 18.7611 97.2557C18.7577 97.1922 18.7796 97.1298 18.8219 97.0823V97.0823Z" fill="white"/>
<path d="M43.9254 67.4441C43.957 67.635 43.9885 67.8259 44.0237 68.0186C44.4608 70.5831 45.106 73.1079 45.9527 75.5682C46.0152 75.7594 46.0813 75.9523 46.1492 76.1413C48.2525 82.0468 51.436 87.5112 55.5377 92.2566C57.1716 94.1434 58.947 95.9034 60.8484 97.5214C63.4745 99.7557 66.4999 101.97 68.1836 104.855C68.3627 105.154 68.523 105.463 68.6637 105.782L61.5127 122.065C61.4778 122.094 61.4466 122.125 61.4117 122.154L61.1559 122.817C61.052 122.741 60.9459 122.659 60.842 122.582C60.7815 122.538 60.7227 122.49 60.6622 122.446C60.6224 122.416 60.5827 122.385 60.545 122.359C60.5317 122.349 60.5185 122.339 60.5089 122.33C60.4713 122.305 60.439 122.278 60.405 122.254C59.8106 121.799 59.2184 121.339 58.6283 120.874C58.6246 120.872 58.6246 120.872 58.6224 120.867C54.1354 117.314 49.9061 113.355 46.4133 108.881C46.3082 108.747 46.1994 108.61 46.0976 108.468C44.5344 106.443 43.1396 104.294 41.9272 102.042C41.2673 100.806 40.6705 99.5385 40.139 98.243C38.7722 94.8929 37.9419 91.3491 37.6783 87.7414C37.154 80.5495 38.9398 73.2702 43.5678 67.8544C43.6863 67.7159 43.8032 67.5809 43.9254 67.4441Z" fill="#E6E6E6"/>
<path d="M44.1155 67.571C42.1679 76.3854 43.0522 85.5883 46.6427 93.8725C47.4228 95.6426 48.3684 97.3705 49.6663 98.8188C50.9423 100.221 52.5711 101.256 54.3835 101.817C56.0629 102.374 57.8453 102.75 59.3598 103.705C60.9561 104.711 61.9099 106.337 62.2372 108.173C62.6376 110.419 62.2056 112.675 61.7062 114.866C61.1518 117.3 60.5374 119.818 61.1192 122.306C61.1897 122.607 60.717 122.699 60.6466 122.398C59.6343 118.07 62.0651 113.926 61.9058 109.606C61.8315 107.59 61.1481 105.585 59.4641 104.356C57.9915 103.282 56.1537 102.893 54.4485 102.344C52.6579 101.767 51.0617 100.928 49.7266 99.5838C48.3609 98.2089 47.3456 96.5143 46.5237 94.7718C44.6893 90.8067 43.4909 86.5784 42.9723 82.2417C42.353 77.2955 42.5859 72.2801 43.6609 67.4123C43.7275 67.1111 44.1817 67.2717 44.1155 67.571Z" fill="white"/>
<path d="M45.3299 91.273C43.8557 91.6856 42.2826 91.5618 40.8914 90.9235C39.5003 90.2852 38.3817 89.1741 37.7355 87.7886C37.6057 87.5078 38.0367 87.2933 38.1667 87.5745C38.7661 88.8658 39.8081 89.9006 41.1048 90.4924C42.4014 91.0841 43.8672 91.1936 45.2377 90.8012C45.5356 90.7163 45.6261 91.1886 45.3299 91.273H45.3299Z" fill="white"/>
<path d="M53.4949 101.647C55.0526 98.9372 55.5299 95.7409 54.8317 92.6955C54.7622 92.3938 55.2349 92.3022 55.3042 92.6035C56.0249 95.774 55.5215 99.0991 53.8943 101.915C53.739 102.184 53.3405 101.914 53.4949 101.647Z" fill="white"/>
<path d="M42.9664 77.4744C43.5701 77.4334 44.1542 77.2434 44.6662 76.9214C45.1781 76.5993 45.6019 76.1554 45.8996 75.6295C46.0514 75.3594 46.4497 75.6296 46.2989 75.898C45.9674 76.4775 45.4987 76.9672 44.9339 77.3243C44.369 77.6813 43.7252 77.8948 43.0586 77.9462C42.9962 77.9563 42.9322 77.9423 42.8798 77.907C42.8273 77.8718 42.7903 77.8179 42.7762 77.7563C42.7643 77.6938 42.7776 77.6291 42.8132 77.5764C42.8489 77.5236 42.9039 77.487 42.9664 77.4745V77.4744Z" fill="white"/>
<path d="M68.2644 22.7997L80.3262 163.743L56.2026 165.554V24.5929C59.0772 22.6942 63.2035 22.3972 68.2644 22.7997Z" fill="#CCCCCC"/>
<path d="M127.803 22.7997L115.741 163.743L139.865 165.554V24.5929C136.99 22.6942 132.864 22.3972 127.803 22.7997Z" fill="#CCCCCC"/>
<path d="M136.253 171.379H59.558C58.3282 171.378 57.1492 170.89 56.2796 170.021C55.41 169.153 54.9208 167.976 54.9194 166.749V26.6615C54.9208 25.4339 55.41 24.257 56.2796 23.389C57.1492 22.5209 58.3282 22.0326 59.558 22.0312H136.253C137.483 22.0326 138.662 22.5209 139.531 23.389C140.401 24.257 140.89 25.4339 140.892 26.6615V166.749C140.89 167.976 140.401 169.153 139.531 170.021C138.662 170.89 137.483 171.378 136.253 171.379ZM59.558 23.5683C58.7364 23.5692 57.9488 23.8954 57.3678 24.4753C56.7869 25.0551 56.4601 25.8414 56.4592 26.6615V166.749C56.4601 167.569 56.7869 168.355 57.3678 168.935C57.9488 169.515 58.7364 169.841 59.558 169.842H136.253C137.075 169.841 137.862 169.515 138.443 168.935C139.024 168.355 139.351 167.569 139.352 166.749V26.6615C139.351 25.8414 139.024 25.0552 138.443 24.4753C137.862 23.8954 137.075 23.5692 136.253 23.5683L59.558 23.5683Z" fill="#CCCCCC"/>
<path d="M140.122 45.3428H55.6895V46.8798H140.122V45.3428Z" fill="#CCCCCC"/>
<path d="M140.122 70.9597H55.6895V72.4967H140.122V70.9597Z" fill="#CCCCCC"/>
<path d="M83.0886 22.7998H81.5488V92.7346H83.0886V22.7998Z" fill="#CCCCCC"/>
<path d="M114.262 22.7998H112.723V92.7346H114.262V22.7998Z" fill="#CCCCCC"/>
<path d="M149.745 175.606H48.6317C46.794 175.606 45.0316 174.877 43.7321 173.58C42.4327 172.283 41.7026 170.524 41.7026 168.69C41.7026 166.855 42.4327 165.096 43.7321 163.799C45.0316 162.502 46.794 161.773 48.6317 161.773H149.745C151.583 161.773 153.345 162.502 154.645 163.799C155.944 165.096 156.674 166.855 156.674 168.69C156.674 170.524 155.944 172.283 154.645 173.58C153.345 174.877 151.583 175.606 149.745 175.606Z" fill="#CCCCCC"/>
<path d="M140.122 89.1482H56.2026V94.2716H140.122V89.1482Z" fill="#CCCCCC"/>
<path d="M83.3278 105.454L83.2213 105.402C77.5006 102.644 70.0091 102.646 58.9301 105.411L58.8118 105.441L58.7764 105.324C57.6043 101.488 56.2767 97.1437 58.7708 95.0061C58.8058 88.7337 64.3178 83.6404 71.0881 83.6404C77.8571 83.6404 83.3683 88.731 83.4053 95.0019C87.1155 97.8335 85.3473 102.018 83.3877 105.352L83.3278 105.454Z" fill="#2F2E41"/>
<path d="M118.489 92.0224C118.387 92.5307 118.174 93.0103 117.865 93.4276C117.557 93.8448 117.161 94.1895 116.704 94.4373C116.248 94.6851 115.743 94.8301 115.225 94.8619C114.706 94.8938 114.187 94.8118 113.704 94.6218L93.4869 114.902L91.6831 108.605L111.762 89.7721C112.136 88.9829 112.787 88.3579 113.591 88.0156C114.396 87.6733 115.298 87.6374 116.127 87.9148C116.956 88.1922 117.655 88.7635 118.09 89.5206C118.525 90.2777 118.667 91.1678 118.489 92.0224L118.489 92.0224Z" fill="#FFB6B6"/>
<path d="M68.5229 111.546C68.5229 111.546 66.6887 115.695 71.2146 118.253C75.7405 120.812 91.5586 117.277 94.1252 116.783C96.6919 116.29 106.278 101.97 106.278 101.97L104.923 94.9468L92.209 105.963L68.5229 111.546Z" fill="#E92718"/>
<path d="M65.1847 134.491L65.4414 139.358C65.4414 139.358 64.6839 143.669 65.3069 144.6C65.9252 145.526 82.7965 145.642 82.7965 145.642C82.7965 145.642 83.9113 139.644 84.8715 134.393L65.1847 134.491Z" fill="#FFB6B6"/>
<path d="M113.692 198.846L117.22 198.135L116.21 183.914L111.004 184.964L113.692 198.846Z" fill="#FFB6B6"/>
<path d="M118.744 180.34L122.023 178.868L117.77 165.261L112.93 167.434L118.744 180.34Z" fill="#FFB6B6"/>
<path d="M121.6 172.673L115.426 176.162L100.2 151.739C89.5106 158.927 79.0579 162.37 68.5207 164.206C64.9582 164.84 61.3259 164.519 60.642 160.899C60.61 160.73 60.5845 160.56 60.5655 160.389C60.1448 156.435 65.0715 151.368 65.6978 146.531L79.1814 145.723L80.8441 147.851L96.4375 138.281C99.5734 136.357 103.698 137.398 105.65 140.606C105.753 140.775 105.848 140.949 105.937 141.127L121.6 172.673Z" fill="#2F2E41"/>
<path d="M117.822 189.103L110.757 189.758L97.9475 163.608C85.2453 165.789 73.2619 166.487 62.8968 163.849C59.3875 162.969 57.2423 159.351 58.1055 155.77C58.1458 155.603 58.1925 155.437 58.2454 155.273C59.4859 151.495 62.7331 148.822 65.2915 144.667L83.9787 144.95L81.8915 152.139L100.045 149.794C103.696 149.323 107.03 151.96 107.492 155.686C107.516 155.882 107.532 156.08 107.54 156.278L117.822 189.103Z" fill="#2F2E41"/>
<path d="M72.4816 101.736C76.6724 101.736 80.0697 98.3443 80.0697 94.1611C80.0697 89.9779 76.6724 86.5867 72.4816 86.5867C68.2909 86.5867 64.8936 89.9779 64.8936 94.1611C64.8936 98.3443 68.2909 101.736 72.4816 101.736Z" fill="#FFB6B6"/>
<path d="M68.0336 104.47L74.9911 105.287C75.2845 105.322 75.5598 105.447 75.7787 105.645C75.9976 105.843 76.1491 106.104 76.2122 106.392L77.3187 111.446L84.2161 119.554C84.2161 119.554 86.6929 124.19 85.7641 129.444C84.8354 134.697 84.4272 138.601 84.4272 138.601C84.4272 138.601 65.9249 145.526 65.3057 144.599C64.6865 143.672 64.4856 139.46 64.4856 139.46L62.0088 111.955C62.0088 111.955 64.7952 107.32 66.3432 107.32C67.3423 107.286 67.2141 105.042 68.0336 104.47Z" fill="#E92718"/>
<path d="M84.6152 140.292C85.5909 140.292 86.3819 139.345 86.3819 138.176C86.3819 137.007 85.5909 136.06 84.6152 136.06C83.6396 136.06 82.8486 137.007 82.8486 138.176C82.8486 139.345 83.6396 140.292 84.6152 140.292Z" fill="#6C63FF"/>
<path d="M111.941 195.184L117.319 192.494L118.332 194.855L125.132 196.227C125.468 196.294 125.773 196.467 126.004 196.721C126.234 196.974 126.377 197.294 126.412 197.634C126.448 197.974 126.373 198.317 126.199 198.612C126.025 198.907 125.762 199.138 125.447 199.273L118.877 202.084L116.742 200.234L117.302 202.758L114.825 203.818L111.941 195.184Z" fill="#2F2E41"/>
<path d="M117.206 179.207L122.535 176.423L123.59 178.765L130.413 180.018C130.75 180.08 131.058 180.247 131.293 180.497C131.528 180.746 131.676 181.063 131.717 181.403C131.759 181.742 131.69 182.086 131.521 182.384C131.353 182.682 131.094 182.918 130.781 183.058L124.262 185.984L122.094 184.172L122.699 186.686L120.241 187.789L117.206 179.207Z" fill="#2F2E41"/>
<path d="M68.1462 91.7857C66.1415 91.789 64.1849 91.1728 62.545 90.0218L62.4902 89.9835V89.9168C62.4924 87.9812 63.2637 86.1255 64.6349 84.7568C66.0061 83.3881 67.8651 82.6182 69.8043 82.616H72.8839C74.823 82.6182 76.6821 83.3881 78.0533 84.7568C79.4244 86.1255 80.1957 87.9812 80.1979 89.9168C80.1959 90.3599 80.0206 90.7846 79.7095 91.1006C79.3984 91.4165 78.976 91.5988 78.5323 91.6085L68.3192 91.7842C68.2616 91.7852 68.2037 91.7857 68.1462 91.7857Z" fill="#2F2E41"/>
<path d="M80.7113 88.5145C81.6933 87.9486 81.8574 86.3972 81.0778 85.0494C80.2983 83.7017 78.8703 83.0678 77.8884 83.6338C76.9064 84.1997 76.7423 85.751 77.5218 87.0988C78.3014 88.4466 79.7294 89.0804 80.7113 88.5145Z" fill="#2F2E41"/>
<path d="M65.3532 87.0109C66.4557 85.9105 66.6994 84.3696 65.8976 83.5692C65.0959 82.7689 63.5522 83.0122 62.4498 84.1127C61.3473 85.2131 61.1036 86.754 61.9054 87.5544C62.7071 88.3547 64.2508 88.1114 65.3532 87.0109Z" fill="#2F2E41"/>
<path d="M132.51 156.265H124.936C124.765 156.265 124.596 156.302 124.441 156.373C124.286 156.445 124.148 156.549 124.038 156.679C123.758 156.628 123.471 156.644 123.199 156.725C122.927 156.806 122.678 156.951 122.472 157.147C122.267 157.342 122.111 157.584 122.017 157.852C121.924 158.119 121.895 158.405 121.934 158.686C121.972 158.967 122.077 159.235 122.239 159.468C122.402 159.7 122.617 159.891 122.868 160.025C123.118 160.158 123.397 160.23 123.681 160.236C123.965 160.241 124.246 160.178 124.501 160.054L125.129 162.092C125.204 162.333 125.354 162.544 125.557 162.695C125.761 162.845 126.007 162.926 126.261 162.926H131.185C131.438 162.926 131.684 162.845 131.888 162.694C132.091 162.544 132.241 162.333 132.316 162.092L133.641 157.794C133.695 157.617 133.707 157.43 133.676 157.248C133.645 157.066 133.572 156.893 133.462 156.745C133.352 156.596 133.208 156.475 133.043 156.392C132.877 156.309 132.695 156.265 132.51 156.265ZM123.718 159.723C123.378 159.723 123.052 159.588 122.811 159.348C122.57 159.108 122.435 158.782 122.435 158.443C122.435 158.103 122.57 157.777 122.811 157.537C123.052 157.297 123.378 157.162 123.718 157.162C123.742 157.162 123.764 157.167 123.787 157.169C123.736 157.375 123.742 157.591 123.805 157.794L124.347 159.552C124.156 159.663 123.939 159.722 123.718 159.723Z" fill="#3F3D56"/>
<path d="M98.6888 150.704C98.1716 150.752 97.6502 150.686 97.1613 150.511C96.6724 150.336 96.228 150.056 95.8593 149.69C95.4905 149.325 95.2065 148.884 95.0271 148.397C94.8478 147.911 94.7775 147.391 94.8213 146.874L69.5586 133.361L75.0841 129.829L98.9184 143.626C99.783 143.757 100.569 144.2 101.129 144.871C101.688 145.542 101.981 146.394 101.953 147.267C101.925 148.139 101.577 148.971 100.975 149.605C100.374 150.238 99.5601 150.629 98.6888 150.704Z" fill="#FFB6B6"/>
<path d="M65.617 108.527C65.617 108.527 61.1089 107.963 59.9519 113.025C58.7948 118.087 66.7259 132.199 67.936 134.511C69.1461 136.824 85.6394 141.882 85.6394 141.882L91.9902 138.571L77.77 129.575L65.617 108.527Z" fill="#E92718"/>
<path d="M97.3923 87.6108H98.9321C99.6808 87.6108 100.399 87.9077 100.928 88.4362C101.458 88.9646 101.755 89.6814 101.755 90.4287H94.5693C94.5693 89.6814 94.8668 88.9646 95.3962 88.4362C95.9256 87.9077 96.6436 87.6108 97.3923 87.6108Z" fill="#CCCCCC"/>
<path d="M48.5658 35.0359C56.9908 35.0359 63.8206 28.2184 63.8206 19.8086C63.8206 11.3988 56.9908 4.5813 48.5658 4.5813C40.1408 4.5813 33.311 11.3988 33.311 19.8086C33.311 28.2184 40.1408 35.0359 48.5658 35.0359Z" fill="#FF6584"/>
<path d="M95.2721 19.015C91.235 14.7876 86.5463 10.931 80.9957 8.89306C79.4496 8.32297 77.8464 7.92082 76.214 7.69358C76.2008 7.69179 76.1884 7.69444 76.1754 7.69338C76.1488 7.68655 76.1219 7.68128 76.0947 7.67758C73.8116 7.38725 71.4941 7.5269 69.2626 8.08931C68.1713 8.36267 67.1067 8.73287 66.0814 9.1955C65.0526 9.69653 64.0557 10.2605 63.0965 10.8841C61.0661 12.0973 58.8306 12.9297 56.5003 13.3404C55.3306 13.5506 54.1459 13.6667 52.9576 13.6875C51.9265 13.7082 50.9542 13.7439 49.9773 14.1157C48.9337 14.5074 47.9964 15.1372 47.24 15.9547C46.4836 16.7723 45.929 17.755 45.6207 18.8244C45.5969 18.9197 45.6041 19.02 45.6411 19.1109C45.6782 19.2018 45.7432 19.2786 45.8269 19.3302C46.0911 19.5191 46.3488 19.7335 46.6264 19.9018C46.8734 20.0146 47.1372 20.0865 47.4074 20.1144C47.8488 20.2074 48.2908 20.2977 48.7333 20.3852C50.3637 20.7076 52.0008 20.9931 53.6446 21.2415C56.971 21.7441 60.3153 22.0982 63.6775 22.3037C70.4131 22.7109 77.1718 22.5082 83.8707 21.6979C87.6356 21.2427 91.3748 20.5971 95.0741 19.7636C95.149 19.7417 95.217 19.7009 95.2715 19.6451C95.3259 19.5893 95.365 19.5204 95.3849 19.4451C95.4048 19.3698 95.4049 19.2906 95.3852 19.2153C95.3654 19.1399 95.3265 19.0709 95.2721 19.015Z" fill="#E6E6E6"/>
<path d="M49.2891 29.196C47.743 28.6259 46.1398 28.2238 44.5074 27.9966C44.4943 27.9948 44.4819 27.9974 44.4688 27.9964C44.4422 27.9895 44.4153 27.9843 44.3881 27.9806C42.105 27.6902 39.7876 27.8299 37.556 28.3923C36.4647 28.6656 35.4001 29.0358 34.3749 29.4985C33.346 29.9995 32.3492 30.5634 31.3899 31.1871C29.3595 32.4003 27.1241 33.2327 24.7938 33.6434C23.6241 33.8536 22.4394 33.9697 21.2511 33.9905C20.22 34.0111 19.2476 34.0469 18.2707 34.4187C17.2272 34.8104 16.2898 35.4402 15.5334 36.2577C14.777 37.0752 14.2225 38.0579 13.9141 39.1274C13.8904 39.2226 13.8975 39.3229 13.9346 39.4138C13.9717 39.5048 14.0367 39.5816 14.1203 39.6332C14.3846 39.8221 14.6422 40.0364 14.9199 40.2047C15.1668 40.3176 15.4306 40.3894 15.7008 40.4174C16.1422 40.5103 16.5842 40.6006 17.0268 40.6881C18.6571 41.0106 20.2942 41.296 21.9381 41.5444C25.2644 42.0471 28.6087 42.4011 31.971 42.6066C38.7066 43.0139 45.4653 42.8111 52.1642 42.0008C55.929 41.5456 59.6683 40.9001 63.3676 40.0665C63.4425 40.0447 63.5105 40.0039 63.5649 39.9481C63.6194 39.8923 63.6584 39.8234 63.6784 39.7481C63.6983 39.6728 63.6984 39.5936 63.6786 39.5182C63.6588 39.4429 63.6199 39.3739 63.5656 39.318C59.5284 35.0905 54.8397 31.234 49.2891 29.196Z" fill="#E6E6E6"/>
<path d="M159.298 142.713L147.566 127.33L138.31 132.554L157.925 155.805L159.298 142.713Z" fill="#3F3D56"/>
<path d="M186.321 117.706C186.581 124.153 187.582 130.549 189.303 136.768C188.933 137.636 188.552 138.499 188.158 139.355C186.669 142.599 185.002 145.758 183.164 148.818C178.01 157.412 171.576 165.173 164.083 171.835C163.272 172.555 162.45 173.263 161.617 173.959C156.867 167.421 154.303 160.207 153.289 152.784C153.161 151.841 153.056 150.888 152.976 149.94V149.935C152.782 147.631 152.719 145.319 152.789 143.008C152.791 142.824 152.797 142.637 152.804 142.45C152.894 139.98 153.117 137.505 153.454 135.054V135.051C153.492 134.77 153.531 134.488 153.574 134.206C153.697 133.361 153.836 132.515 153.987 131.675C154.869 126.829 156.098 122.053 157.667 117.383V117.381C157.711 117.245 157.755 117.112 157.804 116.978C157.973 116.471 158.145 115.969 158.322 115.467C158.333 115.428 158.347 115.389 158.363 115.352C158.591 114.696 158.825 114.045 159.064 113.4C159.128 113.22 159.194 113.041 159.264 112.862C159.533 112.142 159.808 111.427 160.088 110.723C160.175 110.497 160.265 110.272 160.354 110.049C160.424 109.877 160.49 109.706 160.562 109.537V109.534C160.97 108.527 161.384 107.54 161.802 106.573C162.975 103.852 164.181 101.293 165.356 98.9337L165.359 98.9312C170.237 89.1634 174.672 82.8206 174.672 82.8206L191.325 88.2002C189.339 91.7174 187.801 96.9049 186.96 103.025C186.311 107.889 186.097 112.801 186.321 117.703L186.321 117.706Z" fill="#3F3D56"/>
<path d="M158.643 116.141C158.546 115.913 158.435 115.69 158.322 115.467C157.737 114.336 156.983 113.299 156.087 112.393C155.954 112.257 155.815 112.122 155.671 111.993C154.126 110.572 152.246 109.563 150.206 109.059C148.166 108.554 146.031 108.572 144 109.109L143.989 109.114L143.912 109.135L143.93 109.222C144.007 109.627 144.119 110.026 144.264 110.413C144.303 110.518 144.346 110.618 144.39 110.718C144.408 110.764 144.431 110.805 144.451 110.851C144.451 110.851 144.449 110.853 144.454 110.853C144.454 110.856 144.456 110.859 144.456 110.861C144.505 110.956 144.551 111.053 144.603 111.145C144.498 111.046 144.397 110.943 144.3 110.838C144.205 110.741 144.118 110.638 144.03 110.536C143.731 110.188 143.461 109.816 143.222 109.424L143.181 109.355L143.109 109.383C142.141 109.718 141.217 110.17 140.358 110.728L140.266 110.789C139.61 111.219 138.871 111.506 138.097 111.633C137.323 111.759 136.531 111.721 135.772 111.522C134.576 111.214 133.329 111.158 132.11 111.357C130.891 111.556 129.727 112.005 128.691 112.677C128.006 113.124 127.385 113.664 126.849 114.281C126.803 114.335 126.756 114.391 126.71 114.445C126.613 114.563 126.52 114.683 126.431 114.806C125.466 116.093 124.874 117.62 124.719 119.22L124.714 119.279L124.762 119.312C125.631 119.906 126.613 120.315 127.647 120.511C126.997 120.602 126.34 120.618 125.686 120.56H125.684C125.387 120.535 125.093 120.494 124.801 120.437L124.747 120.427H124.744L124.678 120.414L124.688 120.537C124.765 122.102 125.258 123.619 126.117 124.93L126.143 124.966C126.153 124.979 126.161 124.993 126.169 125.007C126.533 125.563 126.836 126.156 127.072 126.777C127.672 128.32 127.804 130.004 127.452 131.621C127.053 133.351 127.186 135.16 127.832 136.813C128.479 138.466 129.609 139.887 131.076 140.89C132.364 141.774 133.866 142.301 135.426 142.414C135.639 142.432 135.854 142.442 136.07 142.442C137.304 142.446 138.525 142.192 139.655 141.697L139.696 141.681L139.706 141.635C139.923 140.935 140.229 140.265 140.615 139.642C140.488 140.133 140.425 140.639 140.425 141.146V141.315L140.571 141.23C140.697 141.156 140.825 141.077 140.941 141.002C141.634 140.55 142.262 140.006 142.806 139.383C143.019 139.137 143.235 138.899 143.461 138.661L143.463 138.658C143.902 138.192 144.367 137.736 144.849 137.301C145.876 136.38 146.974 135.543 148.134 134.798C149.293 134.055 150.505 133.397 151.76 132.83H151.763C151.904 132.764 152.048 132.7 152.189 132.638C152.814 132.367 153.415 132.045 153.988 131.675C154.008 131.662 154.026 131.652 154.044 131.639C156.525 130.018 158.349 127.57 159.191 124.732C160.033 121.894 159.839 118.849 158.643 116.141L158.643 116.141Z" fill="#E92718"/>
<path opacity="0.15" d="M127.874 135.259C127.804 135.57 127.751 135.885 127.716 136.202C127.238 134.695 127.169 133.088 127.515 131.546C127.568 131.31 127.608 131.071 127.64 130.831C128.114 132.259 128.195 133.788 127.874 135.259Z" fill="black"/>
<path opacity="0.15" d="M128.068 124.146C127.308 124.252 126.537 124.255 125.776 124.157C125.577 123.782 125.405 123.393 125.261 122.993C126.109 123.564 127.064 123.956 128.068 124.146Z" fill="black"/>
<path opacity="0.15" d="M125.715 120.477C125.435 121.194 125.248 121.943 125.161 122.707C124.926 121.98 124.788 121.225 124.749 120.461L124.743 120.338L124.864 120.362C125.146 120.414 125.43 120.453 125.715 120.477Z" fill="black"/>
<path opacity="0.15" d="M128.757 112.601C129.791 111.929 130.955 111.478 132.173 111.279C133.392 111.08 134.638 111.136 135.834 111.445C136.592 111.645 137.385 111.683 138.16 111.557C138.934 111.431 139.674 111.144 140.33 110.713L140.422 110.652C141.28 110.093 142.204 109.64 143.172 109.304L143.246 109.279L143.286 109.345C143.669 109.977 144.133 110.556 144.666 111.068C144.342 110.466 144.115 109.817 143.994 109.144L143.977 109.056L144.064 109.032C145.97 108.529 147.967 108.482 149.894 108.896C151.821 109.31 153.623 110.173 155.152 111.415C156.681 112.656 157.895 114.241 158.693 116.039C159.492 117.838 159.854 119.799 159.749 121.764C159.345 120.162 158.626 118.657 157.635 117.334C156.643 116.012 155.399 114.899 153.973 114.06C152.548 113.221 150.97 112.673 149.331 112.447C147.691 112.221 146.024 112.323 144.424 112.745L144.336 112.768L144.354 112.857C144.475 113.529 144.702 114.179 145.026 114.781C144.493 114.269 144.029 113.69 143.646 113.058L143.606 112.991L143.532 113.017C142.563 113.353 141.64 113.805 140.782 114.365L140.689 114.426C140.033 114.856 139.294 115.144 138.519 115.27C137.745 115.396 136.952 115.358 136.193 115.157C134.207 114.643 132.102 114.832 130.24 115.693C128.377 116.553 126.872 118.033 125.979 119.878C125.582 119.687 125.197 119.472 124.826 119.235L124.776 119.203L124.782 119.144C124.91 117.825 125.333 116.552 126.021 115.42C126.71 114.287 127.645 113.324 128.757 112.601Z" fill="black"/>
<path d="M224.164 47.1462L223.92 46.9848L223.743 47.2154C222.373 48.9377 221.283 50.8647 220.512 52.9254C220.619 50.5514 221.034 48.2013 221.749 45.9345L221.826 45.6963L221.606 45.5707C218.734 43.9477 215.675 42.6814 212.495 41.7999L212.149 41.7077C209.712 41.0403 207.443 39.8676 205.491 38.2662C203.539 36.6648 201.947 34.6707 200.818 32.4138C198.196 27.2341 194.054 22.9759 188.945 20.2072C183.835 17.4385 178.001 16.291 172.222 16.918H172.219C172.157 16.9231 172.093 16.9308 172.032 16.9385C171.926 16.9487 171.824 16.9615 171.721 16.9743C171.511 17.0025 171.305 17.0307 171.1 17.0614C170.926 17.087 170.749 17.1152 170.574 17.146C170.482 17.1588 170.392 17.1741 170.302 17.1921C170.212 17.2074 170.12 17.2228 170.03 17.2407H170.027C168.304 17.5661 166.615 18.0506 164.982 18.6881H164.979V18.6907L164.566 18.8521C164.14 19.0263 163.718 19.2107 163.298 19.4054C163.204 19.4489 163.111 19.495 163.016 19.5386C162.991 19.5514 162.962 19.5642 162.937 19.5796C162.667 19.7077 162.4 19.8409 162.136 19.9818C162.097 19.9997 162.059 20.0202 162.02 20.0407L161.774 20.1713C161.233 20.4634 160.7 20.7733 160.178 21.1012C160.134 21.1269 160.093 21.1525 160.05 21.1807C160.003 21.2114 159.955 21.2421 159.908 21.2729C159.88 21.2882 159.852 21.3087 159.824 21.3267C159.744 21.3753 159.667 21.4266 159.59 21.4804C159.436 21.5803 159.282 21.6827 159.131 21.7878C158.974 21.8928 158.82 22.003 158.666 22.1131L158.512 22.2233L158.54 22.4128C158.566 22.5691 158.589 22.7254 158.618 22.8791C158.643 23.0328 158.669 23.1839 158.697 23.3351C158.741 23.5887 158.789 23.8397 158.838 24.0831C158.872 24.2445 158.902 24.4033 158.938 24.5596C158.972 24.7209 159.008 24.8823 159.046 25.0437C159.12 25.3767 159.2 25.6995 159.285 26.0172C159.326 26.176 159.369 26.3348 159.416 26.4911C159.441 26.5859 159.467 26.6807 159.495 26.7729C159.516 26.8369 159.536 26.901 159.557 26.965C159.562 26.9855 159.567 27.0086 159.575 27.0316C159.58 27.0533 159.587 27.0747 159.595 27.0956C159.624 27.1904 159.652 27.2827 159.68 27.3723C159.695 27.421 159.711 27.4697 159.729 27.5158C159.765 27.6259 159.803 27.7386 159.842 27.8462C159.883 27.9692 159.926 28.0922 159.97 28.2126C159.98 28.2433 159.99 28.2715 160.001 28.3022C160.008 28.3253 160.016 28.3483 160.026 28.3714C160.037 28.397 160.047 28.4252 160.057 28.4508C160.101 28.5661 160.144 28.6839 160.191 28.7992C160.206 28.8402 160.221 28.8837 160.239 28.9247C160.655 29.9683 161.167 30.9716 161.766 31.9219C161.102 31.3532 160.462 30.7504 159.847 30.1133C158.897 29.1284 158.022 28.0743 157.229 26.9599C157.165 26.8728 157.101 26.7831 157.042 26.6935C156.921 26.5218 156.803 26.3502 156.688 26.176C156.564 25.9967 156.446 25.8097 156.331 25.6252C156.254 25.5023 156.177 25.3767 156.102 25.2538C156.028 25.1359 155.959 25.0207 155.892 24.9028L155.692 24.5596H155.689V24.5621L155.407 24.8388C155.294 24.9489 155.181 25.0591 155.071 25.1692C151.622 28.6335 149.123 32.9253 147.816 37.632L147.777 37.7729L147.739 37.9189C147.664 38.1802 147.59 38.4338 147.51 38.6925V38.6951C147.433 38.9513 147.351 39.2074 147.264 39.4585C147.184 39.6967 147.102 39.9324 147.015 40.1681C146.987 40.2475 146.956 40.3269 146.923 40.4063C146.869 40.56 146.81 40.7112 146.751 40.8649C146.723 40.934 146.694 41.0057 146.666 41.0749C146.597 41.244 146.528 41.4131 146.458 41.5796C146.448 41.6052 146.435 41.6334 146.422 41.659C146.402 41.7102 146.379 41.7615 146.358 41.8101C146.304 41.9331 146.248 42.0586 146.194 42.1816C146.155 42.261 146.119 42.343 146.084 42.4224C146.068 42.4582 146.05 42.4941 146.035 42.53C145.94 42.7349 145.842 42.9373 145.74 43.1371C145.624 43.3728 145.506 43.6085 145.38 43.839C145.27 44.0542 145.155 44.2643 145.034 44.4743C144.826 44.8458 144.608 45.2147 144.382 45.5733C144.295 45.7116 144.208 45.85 144.118 45.9883C144.097 46.0216 144.077 46.0549 144.056 46.0856C143.982 46.206 143.905 46.3213 143.825 46.4392C143.771 46.5186 143.717 46.598 143.663 46.6748C143.574 46.8132 143.479 46.9464 143.381 47.077C143.356 47.118 143.327 47.1564 143.299 47.1949C143.155 47.3947 143.012 47.5894 142.865 47.7841C142.86 47.7866 142.86 47.7892 142.858 47.7917C142.853 47.7917 142.853 47.7943 142.85 47.7969C142.786 47.8814 142.722 47.9659 142.655 48.0479C142.568 48.1683 142.473 48.2862 142.378 48.4014C142.224 48.5961 142.062 48.7934 141.898 48.9855C141.893 48.9906 141.89 48.9958 141.885 48.9983C141.035 49.9956 140.114 50.9305 139.129 51.7957C139.111 51.8111 139.098 51.8264 139.08 51.8393C138.941 51.9597 138.803 52.0801 138.659 52.1979C138.6 52.2466 138.541 52.2952 138.482 52.3439C138.385 52.4259 138.284 52.5079 138.187 52.5821C138.175 52.5939 138.162 52.6042 138.148 52.6129C138.061 52.6846 137.976 52.7512 137.889 52.8178C137.784 52.9024 137.679 52.9818 137.571 53.0612C137.063 53.4454 136.541 53.8084 136.006 54.1499C135.926 54.2037 135.841 54.2575 135.759 54.3088C135.71 54.3395 135.662 54.3702 135.615 54.3959C135.42 54.5163 135.225 54.6341 135.03 54.7468C134.835 54.8621 134.635 54.9722 134.438 55.0798C134.014 55.3104 133.596 55.5512 133.188 55.8022C132.982 55.9303 132.777 56.0584 132.574 56.189C131.769 56.7117 130.993 57.271 130.247 57.867C129.501 58.4633 128.786 59.0969 128.104 59.7652C128.019 59.8472 127.934 59.9317 127.85 60.0188C127.68 60.1853 127.516 60.3544 127.36 60.5235C127.108 60.7822 126.867 61.0486 126.628 61.3176C125.37 62.743 124.256 64.2893 123.302 65.9338C122.824 66.755 122.388 67.6006 121.999 68.4673C121.703 69.1154 121.434 69.7789 121.19 70.4501C121.028 70.8984 120.877 71.351 120.736 71.8078C120.667 72.0358 120.6 72.2664 120.536 72.4969C120.318 73.2782 120.135 74.0672 119.987 74.8588C119.866 75.4941 119.768 76.1303 119.694 76.7673C119.655 77.0875 119.625 77.4077 119.596 77.7254C119.53 78.5061 119.497 79.2876 119.495 80.0699C119.491 82.4167 119.776 84.7551 120.346 87.0321C120.472 87.5342 120.611 88.0337 120.764 88.5307C120.841 88.7792 120.923 89.0251 121.005 89.271C121.213 89.8858 121.443 90.4947 121.696 91.0975C121.847 91.4587 122.006 91.8174 122.173 92.1734C123.233 94.4371 124.586 96.5524 126.197 98.465C126.461 98.7801 126.734 99.0901 127.016 99.3949C127.018 99.3949 127.016 99.3975 127.016 99.3975C127.714 100.158 128.453 100.88 129.23 101.56H129.233C129.544 101.834 129.859 102.099 130.18 102.356C130.183 102.354 130.183 102.356 130.183 102.356C130.506 102.618 130.832 102.869 131.165 103.112C131.332 103.232 131.502 103.353 131.674 103.473C132.01 103.711 132.353 103.941 132.703 104.162H132.705C133.054 104.388 133.408 104.603 133.768 104.808C134.489 105.22 135.228 105.607 135.988 105.958L136.116 106.017L136.247 105.958C137.465 105.411 138.72 104.951 140.004 104.582C140.286 104.5 140.571 104.426 140.853 104.354C141.567 104.178 142.285 104.029 143.009 103.909C142.304 104.262 141.623 104.661 140.971 105.105C140.466 105.446 139.968 105.817 139.468 106.227C139.301 106.363 139.134 106.504 138.967 106.647L138.551 107.006L139.072 107.177C139.262 107.239 139.452 107.3 139.642 107.357C139.901 107.439 140.158 107.513 140.409 107.582C140.959 107.736 141.511 107.872 142.067 107.989C142.203 108.018 142.337 108.046 142.473 108.074C142.737 108.125 143.004 108.176 143.271 108.223C143.282 108.225 143.293 108.227 143.304 108.228C143.581 108.274 143.861 108.317 144.138 108.356C144.654 108.43 145.17 108.489 145.686 108.533C145.742 108.54 145.799 108.543 145.858 108.545C145.983 108.556 146.107 108.566 146.232 108.574C146.51 108.591 146.789 108.604 147.069 108.615C147.09 108.615 147.108 108.617 147.128 108.617C147.269 108.622 147.41 108.627 147.551 108.63C147.551 108.63 147.551 108.632 147.554 108.63C147.695 108.632 147.836 108.635 147.977 108.635H148.758C148.904 108.635 149.05 108.638 149.199 108.638C149.404 108.638 149.612 108.64 149.818 108.643C149.871 108.643 149.928 108.645 149.984 108.645C150.313 108.65 150.641 108.658 150.97 108.666C150.99 108.666 151.011 108.668 151.031 108.668C151.36 108.679 151.688 108.689 152.017 108.704C152.089 108.707 152.161 108.709 152.235 108.714C152.551 108.727 152.866 108.743 153.182 108.761C153.272 108.766 153.364 108.773 153.457 108.778C153.695 108.791 153.937 108.807 154.175 108.825C154.316 108.832 154.455 108.843 154.596 108.855C155.166 108.899 155.733 108.948 156.303 109.004C156.493 109.019 156.683 109.04 156.872 109.06C157.381 109.114 157.89 109.173 158.402 109.237C158.63 109.263 158.859 109.293 159.087 109.324C159.113 109.327 159.138 109.329 159.164 109.334C159.446 109.373 159.726 109.411 160.008 109.452C160.193 109.478 160.378 109.506 160.563 109.534C160.753 109.562 160.943 109.591 161.133 109.624C161.235 109.639 161.338 109.657 161.443 109.675C161.689 109.714 161.938 109.754 162.187 109.801C162.21 109.803 162.232 109.806 162.254 109.811C162.783 109.903 163.314 110 163.843 110.105C164.153 110.164 164.461 110.226 164.769 110.29C165.01 110.339 165.251 110.39 165.493 110.441C165.534 110.449 165.575 110.459 165.616 110.469C165.625 110.472 165.635 110.474 165.644 110.474C166.009 110.554 166.376 110.636 166.74 110.723C168.005 111.015 169.269 111.339 170.53 111.696C170.82 111.776 171.11 111.86 171.4 111.945C171.524 111.981 171.644 112.016 171.765 112.052C172.016 112.127 172.265 112.201 172.517 112.28C172.737 112.347 172.961 112.416 173.181 112.488C173.32 112.531 173.459 112.575 173.597 112.621C173.813 112.688 174.028 112.757 174.241 112.831C174.424 112.887 174.603 112.946 174.783 113.01C175.039 113.095 175.299 113.182 175.555 113.274C175.63 113.3 175.707 113.326 175.781 113.354C176.094 113.461 176.407 113.571 176.72 113.687C177.026 113.797 177.331 113.91 177.634 114.022C177.844 114.102 178.055 114.179 178.263 114.261C178.496 114.35 178.73 114.44 178.961 114.532C179.294 114.663 179.631 114.796 179.964 114.932C180.272 115.055 180.578 115.18 180.886 115.311C180.942 115.334 181.001 115.357 181.058 115.383C181.324 115.493 181.591 115.608 181.856 115.723C182.028 115.795 182.197 115.869 182.366 115.944C183.105 116.266 183.844 116.6 184.581 116.945H184.584C185.046 117.163 185.515 117.37 185.987 117.568C186.098 117.614 186.208 117.66 186.321 117.703C186.508 117.783 186.698 117.857 186.888 117.934C187.011 117.983 187.135 118.031 187.26 118.078C187.443 118.149 187.627 118.218 187.812 118.285C188.007 118.357 188.2 118.428 188.397 118.495C188.467 118.521 188.536 118.544 188.608 118.569C188.836 118.646 189.064 118.723 189.295 118.797C189.319 118.805 189.342 118.813 189.367 118.82C189.609 118.897 189.85 118.974 190.094 119.046C190.113 119.053 190.133 119.059 190.153 119.064C190.414 119.143 190.681 119.22 190.946 119.294C191.336 119.402 191.728 119.504 192.121 119.599C192.193 119.617 192.265 119.635 192.337 119.65C192.547 119.702 192.755 119.75 192.965 119.796C193.189 119.848 193.414 119.894 193.638 119.94C193.864 119.986 194.089 120.032 194.313 120.073C194.433 120.096 194.554 120.119 194.672 120.14L194.988 120.193C195.206 120.232 195.424 120.265 195.645 120.301C195.651 120.301 195.657 120.302 195.663 120.304C195.911 120.342 196.158 120.378 196.407 120.409C196.645 120.442 196.884 120.47 197.123 120.498C197.172 120.503 197.223 120.509 197.274 120.514C197.472 120.537 197.669 120.56 197.867 120.578C197.923 120.583 197.98 120.588 198.036 120.593C198.231 120.611 198.426 120.629 198.622 120.642C198.661 120.647 198.7 120.649 198.74 120.649C198.914 120.665 199.089 120.678 199.263 120.685C199.386 120.696 199.507 120.701 199.63 120.708C199.694 120.711 199.756 120.714 199.82 120.716C199.989 120.726 200.159 120.731 200.331 120.737C200.539 120.744 200.746 120.749 200.952 120.755C201.201 120.76 201.452 120.762 201.701 120.762H201.706C201.95 120.762 202.196 120.76 202.44 120.755H202.533L202.802 120.747C202.941 120.744 203.079 120.739 203.215 120.734C203.477 120.724 203.736 120.711 203.995 120.696C204.098 120.69 204.203 120.683 204.306 120.678C204.352 120.675 204.401 120.67 204.447 120.667C204.609 120.657 204.768 120.647 204.93 120.634C205.096 120.621 205.266 120.606 205.433 120.588C205.648 120.567 205.864 120.544 206.079 120.521C206.249 120.503 206.418 120.483 206.585 120.462C206.607 120.461 206.63 120.457 206.652 120.452C206.813 120.434 206.975 120.414 207.134 120.391C207.324 120.365 207.511 120.337 207.699 120.309C207.719 120.306 207.737 120.304 207.758 120.301C208.081 120.25 208.407 120.199 208.733 120.14C209.074 120.078 209.416 120.012 209.754 119.942C209.88 119.917 210.003 119.889 210.129 119.863C210.198 119.848 210.27 119.835 210.337 119.819C210.442 119.796 210.545 119.773 210.647 119.748C210.665 119.745 210.686 119.74 210.704 119.738C210.848 119.707 210.989 119.671 211.132 119.635C211.42 119.566 211.702 119.494 211.984 119.417C212.11 119.387 212.236 119.353 212.357 119.32C212.392 119.31 212.428 119.299 212.462 119.289C212.983 119.143 213.499 118.989 214.012 118.826C214.238 118.754 214.461 118.68 214.684 118.6C215.164 118.436 215.64 118.264 216.111 118.083C216.237 118.037 216.363 117.985 216.488 117.937C216.673 117.862 216.858 117.788 217.04 117.714C217.204 117.645 217.369 117.575 217.535 117.504C217.618 117.47 217.7 117.435 217.782 117.399C218.028 117.291 218.275 117.181 218.518 117.071C218.683 116.994 218.844 116.92 219.006 116.843C219.263 116.72 219.517 116.594 219.771 116.469C219.835 116.435 219.896 116.402 219.958 116.371C220.12 116.289 220.281 116.205 220.446 116.123C220.705 115.985 220.964 115.846 221.221 115.703C221.308 115.657 221.393 115.608 221.48 115.559C221.762 115.401 222.042 115.239 222.319 115.075C222.932 114.709 223.537 114.326 224.133 113.928C224.282 113.83 224.431 113.728 224.577 113.628C224.855 113.438 225.127 113.244 225.399 113.049C225.427 113.028 225.453 113.008 225.481 112.99C225.617 112.89 225.753 112.79 225.889 112.688C226.171 112.475 226.451 112.26 226.731 112.04C226.736 112.037 226.743 112.029 226.751 112.024C226.877 111.924 227.003 111.824 227.126 111.724C227.508 111.415 227.885 111.099 228.255 110.774C228.437 110.618 228.617 110.456 228.794 110.295C228.927 110.175 229.061 110.054 229.192 109.931C229.456 109.683 229.715 109.437 229.972 109.186C230.1 109.063 230.226 108.935 230.354 108.807C230.48 108.679 230.608 108.551 230.734 108.42C230.778 108.376 230.821 108.33 230.865 108.284C230.993 108.148 231.122 108.01 231.25 107.874C231.36 107.756 231.468 107.633 231.578 107.51C231.763 107.306 231.951 107.101 232.133 106.893C232.142 106.881 232.153 106.87 232.164 106.86C232.174 106.847 232.184 106.837 232.192 106.826H232.189C235.919 102.521 238.691 97.4731 240.321 92.0179C241.95 86.5627 242.401 80.8242 241.642 75.1823C240.883 69.5403 238.933 64.1235 235.92 59.2903C232.907 54.4571 228.9 50.3178 224.164 47.1462L224.164 47.1462Z" fill="#E92718"/>
<g opacity="0.15">
<path opacity="0.15" d="M172.219 16.9158C172.731 18.7501 173.5 20.5026 174.505 22.1211C172.823 20.6788 171.32 19.0405 170.029 17.2413C170.754 17.1043 171.484 16.9958 172.219 16.9158Z" fill="black"/>
<path opacity="0.15" d="M147.178 45.2836C145.278 46.3184 143.502 47.5645 141.884 48.9982C144.617 45.7724 146.614 41.992 147.737 37.9189C147.751 37.87 147.765 37.8207 147.778 37.7717L147.816 37.6331C149.166 32.7719 151.785 28.3557 155.406 24.8364L155.69 24.5596L155.891 24.9017C157.001 26.7855 158.329 28.5324 159.848 30.1062C157.521 36.6627 152.991 42.1194 147.178 45.2836Z" fill="black"/>
<path opacity="0.15" d="M160.556 27.8343L160.517 27.973C160.504 28.022 160.49 28.0712 160.477 28.1202C160.402 28.3897 160.322 28.6573 160.24 28.9236C159.428 26.8247 158.858 24.6403 158.541 22.4127L158.511 22.2237L158.666 22.1127C160.619 20.7119 162.74 19.561 164.98 18.6868C162.969 21.4474 161.471 24.5456 160.556 27.8343Z" fill="black"/>
<path opacity="0.15" d="M134.439 55.082C136.119 54.1636 137.693 53.0612 139.129 51.7952C136.26 55.1302 134.203 59.0832 133.12 63.3444C132.036 67.6057 131.957 72.0594 132.886 76.3566C133.816 80.6539 135.73 84.6779 138.478 88.1133C141.226 91.5487 144.734 94.3023 148.726 96.1582L148.856 96.218L148.985 96.1596C151.142 95.1871 153.416 94.4979 155.75 94.1093C154.293 94.85 152.935 95.7703 151.707 96.8486L151.292 97.2069L151.813 97.3786C152.263 97.527 152.712 97.6635 153.15 97.7846C155.718 98.4987 158.373 98.8534 161.039 98.8384C173.153 98.7609 185.36 101.556 197.323 107.147C199.374 108.104 201.502 108.889 203.684 109.494C213.194 112.137 223.345 111.186 232.197 106.824C227.206 112.585 220.681 116.814 213.379 119.021C206.077 121.228 198.298 121.322 190.944 119.293C188.762 118.688 186.634 117.903 184.583 116.946C172.621 111.355 160.413 108.56 148.3 108.637C145.634 108.652 142.978 108.297 140.41 107.583C139.973 107.462 139.523 107.326 139.074 107.177L138.553 107.006L138.968 106.647C140.195 105.569 141.553 104.649 143.01 103.908C140.676 104.296 138.402 104.986 136.246 105.958L136.116 106.017L135.987 105.957C131.192 103.729 127.112 100.215 124.202 95.8079C121.291 91.4003 119.665 86.2721 119.504 80.9956C119.344 75.7191 120.655 70.5019 123.292 65.9261C125.929 61.3503 129.788 57.596 134.439 55.082L134.439 55.082Z" fill="black"/>
</g>
</svg>
