<svg width="242" height="204" viewBox="0 0 242 204" fill="none" xmlns="http://www.w3.org/2000/svg">
<path d="M241.666 203.164H141.104C141.015 203.164 140.93 203.123 140.867 203.049C140.805 202.976 140.77 202.876 140.77 202.772C140.77 202.669 140.805 202.569 140.867 202.496C140.93 202.422 141.015 202.381 141.104 202.381H241.666C241.755 202.381 241.84 202.422 241.902 202.496C241.965 202.569 242 202.669 242 202.772C242 202.876 241.965 202.976 241.902 203.049C241.84 203.123 241.755 203.164 241.666 203.164Z" fill="#3F3D56"/>
<path d="M178.88 198.681H174.784L172.835 180.17L178.881 180.17L178.88 198.681Z" fill="#FFB8B8"/>
<path d="M171.859 197.31H179.758V203.137H166.885C166.885 202.372 167.014 201.614 167.264 200.907C167.514 200.2 167.88 199.558 168.342 199.016C168.804 198.475 169.352 198.046 169.956 197.753C170.559 197.46 171.206 197.31 171.859 197.31Z" fill="#2F2E41"/>
<path d="M208.6 193.245L204.874 195.238L196.537 179.35L202.036 176.407L208.6 193.245Z" fill="#FFB8B8"/>
<path d="M201.727 195.416L208.912 191.57L210.979 196.871L199.269 203.138C198.998 202.442 198.846 201.69 198.823 200.925C198.8 200.16 198.905 199.397 199.133 198.68C199.362 197.963 199.708 197.306 200.153 196.746C200.598 196.186 201.133 195.734 201.727 195.416Z" fill="#2F2E41"/>
<path d="M196.672 136.267C197.064 135.921 197.387 135.478 197.618 134.97C197.849 134.462 197.981 133.901 198.007 133.326C198.032 132.751 197.95 132.177 197.766 131.644C197.581 131.11 197.299 130.631 196.94 130.239L201.754 117.438L195.638 118.653L192.003 130.622C191.481 131.374 191.213 132.324 191.249 133.292C191.285 134.26 191.622 135.179 192.198 135.874C192.773 136.57 193.547 136.994 194.371 137.067C195.196 137.139 196.014 136.854 196.672 136.267Z" fill="#FFB8B8"/>
<path d="M178.619 193.8H174.706C174.327 193.799 173.962 193.63 173.684 193.327C173.406 193.024 173.236 192.61 173.207 192.166L169.068 125.401C169.053 125.145 169.085 124.888 169.162 124.648C169.24 124.408 169.361 124.191 169.518 124.012C169.675 123.833 169.863 123.696 170.07 123.611C170.276 123.526 170.496 123.495 170.714 123.52L195.348 126.336C195.715 126.378 196.056 126.576 196.306 126.893C196.556 127.21 196.698 127.624 196.705 128.056L197.18 157.507C197.182 157.666 197.209 157.825 197.258 157.974L206.541 186.179C206.612 186.397 206.646 186.629 206.641 186.863C206.635 187.096 206.59 187.326 206.508 187.539C206.426 187.752 206.308 187.943 206.162 188.102C206.016 188.261 205.845 188.385 205.658 188.465L201.693 190.177C201.348 190.326 200.969 190.322 200.627 190.166C200.285 190.01 200.004 189.712 199.836 189.33L188.432 163.35C188.37 163.209 188.325 163.058 188.297 162.902L186.349 151.905C186.293 151.586 186.141 151.301 185.922 151.102C185.702 150.902 185.429 150.8 185.151 150.815C184.874 150.83 184.61 150.96 184.406 151.182C184.203 151.404 184.074 151.704 184.043 152.027L180.113 192.239C180.071 192.669 179.896 193.065 179.62 193.353C179.345 193.641 178.988 193.8 178.619 193.8Z" fill="#2F2E41"/>
<path d="M180.568 73.1965C185.099 73.1965 188.773 68.8919 188.773 63.582C188.773 58.2721 185.099 53.9675 180.568 53.9675C176.036 53.9675 172.362 58.2721 172.362 63.582C172.362 68.8919 176.036 73.1965 180.568 73.1965Z" fill="#FFB8B8"/>
<path d="M170.63 125.786C171.68 126.635 183.515 135.773 197.004 128.505C196.829 126.74 195.146 109.019 196.616 95.9549C197.314 89.7566 195.207 84.0144 190.837 80.2004C188.463 78.1389 185.664 76.8563 182.726 76.4846C179.789 76.1129 176.82 76.6657 174.125 78.086H174.125C173.904 78.2022 173.681 78.3232 173.456 78.4488L170.63 125.786Z" fill="#E92718"/>
<path d="M197.132 128.36C196.924 128.36 196.718 128.309 196.527 128.21C196.337 128.112 196.166 127.968 196.026 127.788L194.231 125.494C194.056 125.269 193.934 124.996 193.875 124.7C193.817 124.404 193.824 124.096 193.897 123.804L198.008 107.501L191.753 92.111C191.479 91.4344 191.412 90.6678 191.563 89.94C191.696 89.3012 191.992 88.7248 192.41 88.2867C192.829 87.8486 193.351 87.5695 193.908 87.4862C194.464 87.4028 195.03 87.5192 195.529 87.8199C196.028 88.1206 196.438 88.5915 196.704 89.1705L205.159 105.246C205.488 105.871 205.681 106.581 205.722 107.313C205.762 108.045 205.648 108.778 205.39 109.447L198.504 127.323C198.402 127.589 198.245 127.82 198.047 127.998C197.85 128.175 197.618 128.291 197.372 128.337C197.292 128.352 197.212 128.36 197.132 128.36Z" fill="#E92718"/>
<path opacity="0.2" d="M176.703 126.275H173.424L179.147 94.7222L179.477 94.7726L178.204 124.601C178.185 125.053 178.018 125.478 177.739 125.79C177.459 126.101 177.088 126.275 176.703 126.275Z" fill="black"/>
<path d="M173.67 134.119C173.992 133.685 174.23 133.174 174.365 132.621C174.501 132.067 174.531 131.486 174.454 130.918C174.378 130.35 174.195 129.808 173.92 129.331C173.646 128.854 173.285 128.454 172.863 128.158L175.305 114.465L169.537 117.141L168.103 129.734C167.725 130.596 167.631 131.59 167.838 132.528C168.044 133.466 168.537 134.283 169.224 134.824C169.91 135.364 170.742 135.591 171.561 135.461C172.38 135.331 173.131 134.854 173.67 134.119Z" fill="#FFB8B8"/>
<path d="M173.339 126.314C173.282 126.314 173.226 126.31 173.169 126.303L169.673 125.848C169.295 125.797 168.948 125.581 168.7 125.243C168.452 124.905 168.323 124.469 168.337 124.024L169.784 83.0068C169.829 81.7203 170.273 80.4973 171.032 79.5665C171.792 78.6357 172.814 78.061 173.909 77.9499C175.004 77.8388 176.096 78.1989 176.981 78.9629C177.865 79.7268 178.482 80.8422 178.715 82.1004L179.647 87.1228L179.643 87.1583L174.822 124.813C174.77 125.23 174.591 125.611 174.319 125.887C174.047 126.163 173.699 126.314 173.339 126.314Z" fill="#E92718"/>
<path d="M187.328 72.0585C186.478 72.2294 185.777 70.8417 185.672 69.8655C185.566 68.8894 185.869 67.955 185.902 66.9852C185.935 66.0153 185.545 64.8368 184.686 64.5493C183.784 64.2478 182.949 65.0948 182.026 64.993C180.741 64.851 180.095 63.0883 179.94 61.6623C179.784 60.2363 179.662 58.5476 178.548 57.7344C177.438 56.9237 176.065 57.5136 174.79 57.5388C172.634 57.5814 170.44 55.6555 169.937 53.2789C170.198 53.3672 170.477 53.3508 170.73 53.2323C170.982 53.1137 171.194 52.8998 171.331 52.6245C171.439 52.3307 171.461 52.0033 171.394 51.6933C171.327 51.3833 171.174 51.1081 170.959 50.9106L173.402 52.3124C173.068 51.5161 173.573 50.6091 174.267 50.3076C174.961 50.0061 175.768 50.1415 176.534 50.2809C180.36 50.9773 184.791 50.6341 187.328 54.0517C189.086 56.4189 190.533 60.9234 190.335 63.838C190.138 66.7526 187.328 72.0585 187.328 72.0585Z" fill="#2F2E41"/>
<path d="M94.2145 180.46H6.34768C5.72764 180.459 5.13319 180.17 4.69476 179.656C4.25633 179.142 4.00971 178.446 4.00901 177.719L4.53185e-06 2.75068C-0.000600635 2.39015 0.0594087 2.03302 0.176605 1.69967C0.293802 1.36631 0.465889 1.06327 0.683044 0.807843C0.900198 0.552417 1.15817 0.34961 1.44222 0.211C1.72627 0.0723892 2.03084 0.00069074 2.33854 0H90.2054C90.8254 0.000814371 91.4199 0.289772 91.8583 0.803477C92.2967 1.31718 92.5433 2.01368 92.544 2.74017L93.2704 34.4373L92.6025 34.4583L91.8759 2.75068C91.8766 2.49293 91.8339 2.23755 91.7503 1.99914C91.6667 1.76073 91.5438 1.54396 91.3886 1.36121C91.2335 1.17847 91.0492 1.03334 90.8461 0.934108C90.6431 0.834879 90.4254 0.783501 90.2054 0.782905H2.33854C1.89566 0.783507 1.47107 0.989914 1.15791 1.35684C0.844743 1.72377 0.66858 2.22125 0.668066 2.74017L4.67708 177.709C4.67643 177.967 4.71914 178.222 4.80276 178.461C4.88637 178.699 5.00926 178.916 5.1644 179.098C5.31955 179.281 5.5039 179.426 5.70693 179.526C5.90996 179.625 6.12769 179.676 6.34768 179.677H94.2145C94.6574 179.676 95.082 179.47 95.3952 179.103C95.7083 178.736 95.8845 178.238 95.885 177.719L95.1048 143.674L95.7727 143.653L96.5531 177.709C96.5537 178.07 96.4937 178.427 96.3765 178.76C96.2593 179.093 96.0872 179.396 95.87 179.652C95.6529 179.907 95.3949 180.11 95.1108 180.249C94.8268 180.387 94.5222 180.459 94.2145 180.46Z" fill="#CCCCCC"/>
<path d="M94.3467 81.4116L93.6787 81.4326L94.023 96.4588L94.691 96.4378L94.3467 81.4116Z" fill="#CCCCCC"/>
<path d="M86.3296 165.04H13.544C13.0152 165.039 12.5082 164.793 12.1343 164.355C11.7603 163.917 11.55 163.323 11.5494 162.703L8.22852 17.767C8.22787 17.4594 8.27894 17.1547 8.37883 16.8702C8.47871 16.5857 8.62546 16.3271 8.81067 16.1091C8.99588 15.8911 9.21593 15.718 9.45826 15.5996C9.70059 15.4813 9.96044 15.4201 10.223 15.4194H83.0086C83.5374 15.4201 84.0444 15.6666 84.4183 16.1047C84.7922 16.5429 85.0026 17.1369 85.0032 17.7565L85.6046 34.4313L84.9371 34.4641L84.3353 17.7729C84.3365 17.5676 84.3031 17.3641 84.237 17.174C84.1709 16.9838 84.0734 16.8109 83.9502 16.665C83.8269 16.5191 83.6803 16.4031 83.5187 16.3237C83.3571 16.2443 83.1838 16.2031 83.0086 16.2024H10.223C9.87132 16.2028 9.53418 16.3667 9.28553 16.6581C9.03687 16.9494 8.897 17.3445 8.89659 17.7565L12.2175 162.692C12.2168 162.897 12.2505 163.1 12.3168 163.29C12.3832 163.479 12.4807 163.652 12.6039 163.797C12.7271 163.942 12.8736 164.058 13.0349 164.137C13.1962 164.216 13.3692 164.257 13.544 164.257H86.3296C86.6813 164.257 87.0184 164.093 87.2671 163.801C87.5157 163.51 87.6556 163.115 87.656 162.703L87.2259 143.673L87.8939 143.653L88.3241 162.693C88.3247 163 88.2736 163.305 88.1737 163.589C88.0738 163.874 87.9271 164.132 87.7419 164.35C87.5567 164.568 87.3366 164.741 87.0943 164.86C86.852 164.978 86.5921 165.039 86.3296 165.04Z" fill="#CCCCCC"/>
<path d="M86.4966 81.8033L85.8286 81.824L86.1647 96.6992L86.8327 96.6785L86.4966 81.8033Z" fill="#CCCCCC"/>
<path d="M105.698 81.8136H20.5037C19.8869 81.8128 19.2954 81.527 18.8575 81.0181C18.4197 80.5093 18.1708 79.8186 18.1651 79.096L16.8286 36.7966C16.8293 36.0701 17.0759 35.3736 17.5144 34.8599C17.9528 34.3462 18.5472 34.0572 19.1673 34.0564H104.361C104.978 34.0572 105.57 34.343 106.007 34.8519C106.445 35.3607 106.694 36.0514 106.7 36.774L108.036 79.0734C108.036 79.7999 107.789 80.4964 107.351 81.0101C106.912 81.5238 106.318 81.8128 105.698 81.8136ZM17.4969 36.7759L18.8332 79.0734C18.8337 79.5924 19.0099 80.0899 19.323 80.4568C19.6362 80.8237 20.0608 81.0301 20.5037 81.0307H105.698C106.138 81.0301 106.559 80.8265 106.872 80.464C107.185 80.1016 107.363 79.6094 107.368 79.0941L106.032 36.7966C106.031 36.2776 105.855 35.7802 105.542 35.4132C105.229 35.0463 104.804 34.8399 104.361 34.8393H19.1673C18.7274 34.8399 18.3055 35.0435 17.9929 35.406C17.6802 35.7684 17.502 36.2606 17.4969 36.7759Z" fill="#3F3D56"/>
<path d="M121.734 144.055H36.5398C35.9231 144.054 35.3315 143.768 34.8937 143.259C34.4558 142.75 34.207 142.06 34.2012 141.337L32.8647 99.0375C32.8654 98.311 33.1121 97.6145 33.5505 97.1008C33.9889 96.5871 34.5834 96.2982 35.2034 96.2974H120.397C121.014 96.2981 121.606 96.584 122.044 97.0928C122.481 97.6017 122.73 98.2924 122.736 99.015L124.073 141.314C124.072 142.041 123.825 142.737 123.387 143.251C122.948 143.765 122.354 144.054 121.734 144.055ZM33.533 99.0169L34.8693 141.314C34.8698 141.833 35.046 142.331 35.3591 142.698C35.6723 143.065 36.0969 143.271 36.5398 143.272H121.734C122.174 143.271 122.596 143.067 122.908 142.705C123.221 142.343 123.399 141.85 123.404 141.335L122.068 99.0375C122.067 98.5186 121.891 98.0211 121.578 97.6542C121.265 97.2873 120.84 97.0809 120.397 97.0803H35.2034C34.7636 97.0809 34.3416 97.2844 34.029 97.6469C33.7164 98.0094 33.5382 98.5016 33.533 99.0169Z" fill="#3F3D56"/>
<path d="M56.7522 105.497C56.1762 105.497 55.6239 105.765 55.2166 106.242C54.8094 106.719 54.5806 107.366 54.5806 108.041C54.5806 108.716 54.8094 109.363 55.2166 109.84C55.6239 110.317 56.1762 110.585 56.7522 110.585H100.184C100.76 110.585 101.313 110.317 101.72 109.84C102.127 109.363 102.356 108.716 102.356 108.041C102.356 107.366 102.127 106.719 101.72 106.242C101.313 105.765 100.76 105.497 100.184 105.497H56.7522Z" fill="#E92718"/>
<path d="M56.7522 117.631C56.1762 117.631 55.6239 117.899 55.2166 118.377C54.8094 118.854 54.5806 119.501 54.5806 120.176C54.5806 120.851 54.8094 121.498 55.2166 121.975C55.6239 122.452 56.1762 122.72 56.7522 122.72H100.184C100.76 122.72 101.313 122.452 101.72 121.975C102.127 121.498 102.356 120.851 102.356 120.176C102.356 119.501 102.127 118.854 101.72 118.377C101.313 117.899 100.76 117.631 100.184 117.631H56.7522Z" fill="#E92718"/>
<path d="M56.7522 129.766C56.1762 129.766 55.6239 130.034 55.2166 130.512C54.8094 130.989 54.5806 131.636 54.5806 132.311C54.5806 132.986 54.8094 133.633 55.2166 134.11C55.6239 134.587 56.1762 134.855 56.7522 134.855H100.184C100.76 134.855 101.313 134.587 101.72 134.11C102.127 133.633 102.356 132.986 102.356 132.311C102.356 131.636 102.127 130.989 101.72 130.512C101.313 130.034 100.76 129.766 100.184 129.766H56.7522Z" fill="#E92718"/>
<path d="M40.7165 43.2556C40.1406 43.2556 39.5882 43.5237 39.181 44.0009C38.7737 44.478 38.5449 45.1252 38.5449 45.8001C38.5449 46.4749 38.7737 47.1221 39.181 47.5992C39.5882 48.0764 40.1406 48.3445 40.7165 48.3445H84.1488C84.7248 48.3445 85.2771 48.0764 85.6844 47.5992C86.0916 47.1221 86.3204 46.4749 86.3204 45.8001C86.3204 45.1252 86.0916 44.478 85.6844 44.0009C85.2771 43.5237 84.7248 43.2556 84.1488 43.2556H40.7165Z" fill="#E92718"/>
<path d="M40.7165 55.3906C40.1406 55.3906 39.5882 55.6587 39.181 56.1359C38.7737 56.6131 38.5449 57.2602 38.5449 57.9351C38.5449 58.6099 38.7737 59.2571 39.181 59.7343C39.5882 60.2114 40.1406 60.4795 40.7165 60.4795H84.1488C84.7248 60.4795 85.2771 60.2114 85.6844 59.7343C86.0916 59.2571 86.3204 58.6099 86.3204 57.9351C86.3204 57.2602 86.0916 56.6131 85.6844 56.1359C85.2771 55.6587 84.7248 55.3906 84.1488 55.3906H40.7165Z" fill="#E92718"/>
<path d="M40.7165 67.5254C40.1406 67.5254 39.5882 67.7935 39.181 68.2706C38.7737 68.7478 38.5449 69.395 38.5449 70.0698C38.5449 70.7447 38.7737 71.3918 39.181 71.869C39.5882 72.3462 40.1406 72.6143 40.7165 72.6143H84.1488C84.7248 72.6143 85.2771 72.3462 85.6844 71.869C86.0916 71.3918 86.3204 70.7447 86.3204 70.0698C86.3204 69.395 86.0916 68.7478 85.6844 68.2706C85.2771 67.7935 84.7248 67.5254 84.1488 67.5254H40.7165Z" fill="#E92718"/>
<path d="M46.8966 11.7436C48.7418 11.7436 50.2376 9.99101 50.2376 7.82908C50.2376 5.66714 48.7418 3.91455 46.8966 3.91455C45.0515 3.91455 43.5557 5.66714 43.5557 7.82908C43.5557 9.99101 45.0515 11.7436 46.8966 11.7436Z" fill="#E6E6E6"/>
</svg>
