<svg width="195" height="207" viewBox="0 0 195 207" fill="none" xmlns="http://www.w3.org/2000/svg">
<path d="M123.768 117.105L39.9416 138.457C37.0982 139.178 34.0817 138.754 31.554 137.277C29.0263 135.801 27.1939 133.393 26.4586 130.582L1.10736 33.2018C0.378553 30.3891 0.807415 27.4053 2.29986 24.905C3.79231 22.4047 6.22646 20.5921 9.06829 19.8649L87.055 0L107.016 8.83902L131.729 103.768C132.458 106.58 132.029 109.564 130.536 112.064C129.044 114.565 126.61 116.377 123.768 117.105Z" fill="#F2F2F2"/>
<path d="M9.86311 22.918C7.83938 23.4359 6.10597 24.7267 5.04317 26.5072C3.98036 28.2877 3.67496 30.4125 4.19396 32.4155L29.5452 129.796C30.0688 131.798 31.3737 133.512 33.1738 134.564C34.9738 135.615 37.1219 135.917 39.1468 135.404L122.973 114.051C124.997 113.533 126.73 112.243 127.793 110.462C128.856 108.682 129.161 106.557 128.642 104.554L104.312 11.0961L86.7701 3.32812L9.86311 22.918Z" fill="white"/>
<path d="M106.803 9.34148L93.8295 12.646C92.8825 12.8873 91.8773 12.7465 91.0351 12.2546C90.193 11.7628 89.5829 10.9602 89.339 10.0234L86.8715 0.545316C86.8607 0.503821 86.862 0.460154 86.8751 0.419324C86.8882 0.378494 86.9128 0.342154 86.9458 0.31447C86.9789 0.286785 87.0192 0.268878 87.062 0.262802C87.1049 0.256726 87.1487 0.262726 87.1883 0.280116L106.839 8.91236C106.883 8.93157 106.919 8.96377 106.944 9.00449C106.968 9.04521 106.979 9.09242 106.975 9.13959C106.971 9.18676 106.952 9.23154 106.921 9.26772C106.891 9.30389 106.849 9.32967 106.803 9.34148Z" fill="#F2F2F2"/>
<path d="M99.9777 92.5023L61.8128 102.224C61.5783 102.283 61.3343 102.297 61.0945 102.263C60.8548 102.23 60.6241 102.15 60.4156 102.028C60.2071 101.906 60.0249 101.745 59.8794 101.554C59.7339 101.362 59.6279 101.144 59.5675 100.912C59.5071 100.68 59.4935 100.439 59.5275 100.202C59.5614 99.9647 59.6423 99.7365 59.7654 99.5303C59.8885 99.3241 60.0514 99.1438 60.245 98.9999C60.4385 98.8559 60.6588 98.7511 60.8932 98.6914L99.0582 88.97C99.2926 88.9102 99.5367 88.8968 99.7764 88.9304C100.016 88.9639 100.247 89.0439 100.455 89.1657C100.664 89.2874 100.846 89.4486 100.992 89.6401C101.137 89.8315 101.243 90.0494 101.303 90.2813C101.364 90.5132 101.377 90.7547 101.343 90.9918C101.31 91.2289 101.229 91.4571 101.106 91.6634C100.983 91.8696 100.82 92.0498 100.626 92.1938C100.433 92.3377 100.212 92.4425 99.9777 92.5023Z" fill="#CCCCCC"/>
<path d="M108.895 96.5868L63.3646 108.184C62.891 108.305 62.3884 108.235 61.9674 107.989C61.5463 107.743 61.2412 107.341 61.1193 106.873C60.9973 106.405 61.0685 105.907 61.3171 105.491C61.5658 105.074 61.9715 104.773 62.445 104.652L107.975 93.0545C108.448 92.9344 108.951 93.0051 109.371 93.2511C109.792 93.497 110.097 93.8981 110.219 94.3663C110.341 94.8344 110.27 95.3313 110.021 95.7477C109.773 96.164 109.368 96.4659 108.895 96.5868Z" fill="#CCCCCC"/>
<path d="M46.2359 113.932C49.8349 113.932 52.7525 111.046 52.7525 107.486C52.7525 103.926 49.8349 101.04 46.2359 101.04C42.6368 101.04 39.7192 103.926 39.7192 107.486C39.7192 111.046 42.6368 113.932 46.2359 113.932Z" fill="#E6E6E6"/>
<path d="M95.9193 75.6325L45.2325 88.5387C43.7677 88.91 42.2137 88.6913 40.9117 87.9307C39.6096 87.1701 38.6657 85.9296 38.2871 84.4815L27.665 43.6643C27.2897 42.2153 27.5108 40.6782 28.2797 39.3903C29.0487 38.1023 30.3027 37.1687 31.7667 36.7942L82.4536 23.8879C83.9184 23.5167 85.4724 23.7354 86.7744 24.496C88.0765 25.2566 89.0204 26.4971 89.399 27.9452L100.021 68.7624C100.396 70.2114 100.175 71.7484 99.4064 73.0364C98.6374 74.3244 97.3834 75.258 95.9193 75.6325Z" fill="white"/>
<path d="M95.9193 75.6325L45.2325 88.5387C43.7677 88.91 42.2137 88.6913 40.9117 87.9307C39.6096 87.1701 38.6657 85.9296 38.2871 84.4815L27.665 43.6643C27.2897 42.2153 27.5108 40.6782 28.2797 39.3903C29.0487 38.1023 30.3027 37.1687 31.7667 36.7942L82.4536 23.8879C83.9184 23.5167 85.4724 23.7354 86.7744 24.496C88.0765 25.2566 89.0204 26.4971 89.399 27.9452L100.021 68.7624C100.396 70.2114 100.175 71.7484 99.4064 73.0364C98.6374 74.3244 97.3834 75.258 95.9193 75.6325ZM31.934 37.4369C30.6422 37.7674 29.5357 38.5912 28.8573 39.7277C28.1788 40.8641 27.9837 42.2203 28.3149 43.4989L38.9369 84.316C39.271 85.5938 40.1039 86.6883 41.2527 87.3594C42.4016 88.0306 43.7727 88.2235 45.0652 87.896L95.7521 74.9897C97.0439 74.6593 98.1504 73.8355 98.8289 72.699C99.5074 71.5626 99.7024 70.2064 99.3713 68.9278L88.7492 28.1107C88.4151 26.8329 87.5822 25.7384 86.4333 25.0672C85.2845 24.3961 83.9134 24.2032 82.6208 24.5307L31.934 37.4369Z" fill="#E6E6E6"/>
<path d="M79.8823 37.6123L54.3013 44.1259C54.0777 44.1876 53.8387 44.1631 53.6326 44.0572C53.4266 43.9514 53.2688 43.772 53.1913 43.5555C53.1552 43.4424 53.1428 43.3233 53.1548 43.2053C53.1669 43.0873 53.2031 42.9729 53.2612 42.8692C53.3194 42.7655 53.3983 42.6746 53.4932 42.6021C53.588 42.5296 53.6968 42.4769 53.813 42.4473L79.8528 35.8169C80.9047 36.3441 80.6279 37.4224 79.882 37.6124L79.8823 37.6123Z" fill="#F2F2F2"/>
<path d="M81.0376 42.0508L55.4566 48.5644C55.2329 48.6261 54.9939 48.6016 54.7879 48.4957C54.5818 48.3898 54.4241 48.2105 54.3466 47.994C54.3105 47.8809 54.2981 47.7617 54.3101 47.6437C54.3221 47.5257 54.3583 47.4114 54.4165 47.3077C54.4747 47.204 54.5536 47.1131 54.6484 47.0406C54.7433 46.968 54.8521 46.9154 54.9682 46.8858L81.0081 40.2554C82.06 40.7826 81.7832 41.8609 81.0373 42.0508L81.0376 42.0508Z" fill="#F2F2F2"/>
<path d="M50.5842 52.4995L42.7771 54.4874C42.5222 54.5521 42.2517 54.514 42.025 54.3816C41.7984 54.2492 41.6341 54.0333 41.5682 53.7812L39.1967 44.668C39.1313 44.4158 39.1698 44.1483 39.3036 43.9241C39.4375 43.6999 39.6558 43.5374 39.9106 43.4722L47.7177 41.4843C47.9726 41.4198 48.2431 41.4579 48.4697 41.5902C48.6963 41.7226 48.8606 41.9385 48.9266 42.1905L51.2982 51.3037C51.3635 51.5559 51.325 51.8235 51.1912 52.0477C51.0573 52.2719 50.8391 52.4344 50.5842 52.4995V52.4995Z" fill="#E6E6E6"/>
<path d="M83.3279 51.1575L44.2867 61.0985C44.063 61.1602 43.824 61.1357 43.618 61.0298C43.4119 60.924 43.2542 60.7447 43.1767 60.5282C43.1406 60.4151 43.1282 60.2959 43.1402 60.1779C43.1522 60.0599 43.1884 59.9455 43.2466 59.8418C43.3048 59.7381 43.3837 59.6472 43.4785 59.5747C43.5734 59.5022 43.6822 59.4495 43.7983 59.4199L83.2988 49.3621C84.3506 49.8893 84.0739 50.9676 83.328 51.1575L83.3279 51.1575Z" fill="#F2F2F2"/>
<path d="M84.4832 55.5972L45.442 65.5382C45.2183 65.5999 44.9793 65.5754 44.7733 65.4695C44.5672 65.3636 44.4095 65.1843 44.3319 64.9678C44.2959 64.8547 44.2834 64.7356 44.2955 64.6176C44.3075 64.4996 44.3437 64.3852 44.4019 64.2815C44.46 64.1778 44.539 64.0869 44.6338 64.0144C44.7287 63.9418 44.8375 63.8892 44.9536 63.8596L84.4541 53.8018C85.5059 54.329 85.2291 55.4073 84.4832 55.5972V55.5972Z" fill="#F2F2F2"/>
<path d="M85.638 60.0342L46.5967 69.9752C46.3731 70.0369 46.1341 70.0124 45.928 69.9065C45.722 69.8007 45.5642 69.6214 45.4867 69.4049C45.4506 69.2918 45.4382 69.1726 45.4502 69.0546C45.4623 68.9366 45.4985 68.8222 45.5566 68.7185C45.6148 68.6148 45.6937 68.5239 45.7886 68.4514C45.8834 68.3789 45.9923 68.3262 46.1084 68.2966L85.6088 58.2388C86.6607 58.766 86.3839 59.8443 85.638 60.0342Z" fill="#F2F2F2"/>
<path d="M86.7933 64.4734L47.752 74.4144C47.5284 74.4762 47.2894 74.4516 47.0833 74.3457C46.8773 74.2399 46.7195 74.0605 46.642 73.844C46.6059 73.731 46.5935 73.6118 46.6055 73.4938C46.6175 73.3758 46.6537 73.2614 46.7119 73.1577C46.7701 73.054 46.849 72.9631 46.9439 72.8906C47.0387 72.8181 47.1475 72.7654 47.2636 72.7358L86.7641 62.678C87.816 63.2052 87.5392 64.2835 86.7933 64.4735L86.7933 64.4734Z" fill="#F2F2F2"/>
<path d="M87.9481 68.9107L48.9068 78.8516C48.6831 78.9134 48.4441 78.8889 48.2381 78.783C48.032 78.6771 47.8743 78.4978 47.7968 78.2813C47.7607 78.1682 47.7483 78.049 47.7603 77.931C47.7723 77.813 47.8085 77.6987 47.8667 77.595C47.9249 77.4913 48.0038 77.4004 48.0986 77.3279C48.1935 77.2553 48.3023 77.2027 48.4184 77.1731L87.9189 67.1152C88.9708 67.6424 88.694 68.7208 87.9481 68.9107Z" fill="#F2F2F2"/>
<path d="M46.7167 109.746C46.5748 109.782 46.4248 109.772 46.2893 109.716L46.2809 109.713L44.5056 108.968C44.4232 108.934 44.3485 108.884 44.2858 108.821C44.223 108.758 44.1735 108.683 44.1399 108.601C44.1064 108.519 44.0896 108.431 44.0904 108.343C44.0912 108.254 44.1096 108.167 44.1446 108.085C44.1796 108.004 44.2305 107.93 44.2944 107.868C44.3583 107.806 44.4339 107.757 44.5168 107.724C44.5998 107.691 44.6886 107.674 44.7781 107.675C44.8675 107.676 44.9559 107.695 45.0382 107.729L46.1886 108.213L47.696 104.706C47.7309 104.624 47.7817 104.551 47.8455 104.489C47.9093 104.427 47.9847 104.378 48.0676 104.345C48.1504 104.312 48.2391 104.295 48.3284 104.296C48.4177 104.297 48.506 104.315 48.5882 104.35L48.5885 104.35L48.5794 104.373L48.5888 104.35C48.7548 104.42 48.8858 104.552 48.9533 104.718C49.0207 104.883 49.019 105.068 48.9486 105.233L47.1752 109.357C47.134 109.452 47.0713 109.536 46.9919 109.604C46.9125 109.671 46.8184 109.719 46.7171 109.745L46.7167 109.746Z" fill="white"/>
<path d="M155.92 154.214H69.3593C66.424 154.21 63.6097 153.055 61.5341 151.002C59.4585 148.949 58.2909 146.165 58.2876 143.262V42.7045C58.2909 39.8009 59.4585 37.0172 61.5341 34.964C63.6097 32.9109 66.424 31.756 69.3593 31.7527H149.89L166.992 45.2363V143.262C166.989 146.165 165.821 148.949 163.746 151.002C161.67 153.055 158.856 154.21 155.92 154.214Z" fill="#E6E6E6"/>
<path d="M69.3595 34.9055C67.2692 34.9078 65.2651 35.7303 63.787 37.1924C62.3089 38.6545 61.4775 40.6368 61.4751 42.7045V143.262C61.4775 145.33 62.3089 147.312 63.787 148.774C65.2651 150.236 67.2692 151.059 69.3595 151.061H155.921C158.011 151.059 160.015 150.236 161.493 148.774C162.971 147.312 163.803 145.33 163.805 143.262V46.7552L148.776 34.9055H69.3595Z" fill="white"/>
<path d="M139.084 64.1448H99.6743C99.1853 64.1448 98.7164 63.9527 98.3706 63.6107C98.0248 63.2687 97.8306 62.8048 97.8306 62.3211C97.8306 61.8374 98.0248 61.3735 98.3706 61.0315C98.7164 60.6895 99.1853 60.4973 99.6743 60.4973H139.084C139.573 60.4973 140.042 60.6895 140.388 61.0315C140.734 61.3735 140.928 61.8374 140.928 62.3211C140.928 62.8048 140.734 63.2687 140.388 63.6107C140.042 63.9527 139.573 64.1448 139.084 64.1448Z" fill="#E92718"/>
<path d="M146.689 70.3001H99.6738C99.1852 70.2995 98.7169 70.107 98.3717 69.7651C98.0264 69.4231 97.8325 68.9596 97.8325 68.4763C97.8325 67.9931 98.0264 67.5296 98.3717 67.1876C98.7169 66.8457 99.1852 66.6532 99.6738 66.6526H146.689C146.932 66.6523 147.172 66.6992 147.396 66.7907C147.62 66.8822 147.823 67.0165 147.995 67.1859C148.166 67.3553 148.302 67.5564 148.395 67.7779C148.488 67.9993 148.535 68.2366 148.535 68.4763C148.535 68.7161 148.488 68.9534 148.395 69.1748C148.302 69.3963 148.166 69.5974 147.995 69.7668C147.823 69.9362 147.62 70.0705 147.396 70.162C147.172 70.2535 146.932 70.3004 146.689 70.3001Z" fill="#E92718"/>
<path d="M139.085 88.0808H99.6761C99.1872 88.0808 98.7182 88.2729 98.3725 88.6149C98.0268 88.9569 97.8325 89.4208 97.8325 89.9044C97.8325 90.3881 98.0268 90.852 98.3725 91.194C98.7182 91.536 99.1872 91.7281 99.6761 91.7281H139.085C139.574 91.7281 140.043 91.536 140.389 91.194C140.734 90.852 140.929 90.3881 140.929 89.9044C140.929 89.4208 140.734 88.9569 140.389 88.6149C140.043 88.2729 139.574 88.0808 139.085 88.0808Z" fill="#CCCCCC"/>
<path d="M146.691 94.2371H99.6761C99.1872 94.2371 98.7182 94.4292 98.3725 94.7712C98.0268 95.1132 97.8325 95.577 97.8325 96.0607C97.8325 96.5444 98.0268 97.0082 98.3725 97.3502C98.7182 97.6922 99.1872 97.8843 99.6761 97.8843H146.691C147.18 97.8843 147.649 97.6922 147.994 97.3502C148.34 97.0082 148.534 96.5444 148.534 96.0607C148.534 95.577 148.34 95.1132 147.994 94.7712C147.649 94.4292 147.18 94.2371 146.691 94.2371Z" fill="#CCCCCC"/>
<path d="M139.084 119.314H99.6743C99.1853 119.314 98.7164 119.122 98.3706 118.78C98.0248 118.438 97.8306 117.974 97.8306 117.49C97.8306 117.007 98.0248 116.543 98.3706 116.201C98.7164 115.859 99.1853 115.667 99.6743 115.667H139.084C139.573 115.667 140.042 115.859 140.388 116.201C140.734 116.543 140.928 117.007 140.928 117.49C140.928 117.974 140.734 118.438 140.388 118.78C140.042 119.122 139.573 119.314 139.084 119.314Z" fill="#CCCCCC"/>
<path d="M146.689 125.469H99.6738C99.1852 125.468 98.7169 125.276 98.3717 124.934C98.0264 124.592 97.8325 124.129 97.8325 123.645C97.8325 123.162 98.0264 122.699 98.3717 122.357C98.7169 122.015 99.1852 121.822 99.6738 121.822H146.689C146.932 121.821 147.172 121.868 147.396 121.96C147.62 122.051 147.823 122.185 147.995 122.355C148.166 122.524 148.302 122.725 148.395 122.947C148.488 123.168 148.535 123.406 148.535 123.645C148.535 123.885 148.488 124.122 148.395 124.344C148.302 124.565 148.166 124.766 147.995 124.936C147.823 125.105 147.62 125.239 147.396 125.331C147.172 125.422 146.932 125.469 146.689 125.469Z" fill="#CCCCCC"/>
<path d="M83.2632 71.8449C86.8622 71.8449 89.7798 68.9589 89.7798 65.3989C89.7798 61.8389 86.8622 58.9529 83.2632 58.9529C79.6642 58.9529 76.7466 61.8389 76.7466 65.3989C76.7466 68.9589 79.6642 71.8449 83.2632 71.8449Z" fill="#E92718"/>
<path d="M82.6174 67.8578C82.4707 67.8581 82.328 67.8111 82.2107 67.7241L82.2035 67.7188L80.672 66.5599C80.6008 66.5062 80.5411 66.4391 80.4962 66.3626C80.4513 66.286 80.4221 66.2014 80.4103 66.1136C80.3984 66.0259 80.4042 65.9367 80.4273 65.8511C80.4504 65.7656 80.4903 65.6854 80.5448 65.6152C80.5992 65.5449 80.6671 65.486 80.7447 65.4417C80.8222 65.3974 80.9078 65.3687 80.9965 65.3572C81.0852 65.3458 81.1754 65.3517 81.2618 65.3747C81.3482 65.3977 81.4292 65.4374 81.5001 65.4914L82.4921 66.2438L84.8362 63.2188C84.8906 63.1487 84.9583 63.0898 85.0357 63.0456C85.113 63.0014 85.1984 62.9727 85.287 62.9611C85.3756 62.9495 85.4656 62.9553 85.5519 62.9782C85.6382 63.001 85.7191 63.0404 85.79 63.0942L85.7902 63.0944L85.7757 63.1143L85.7906 63.0944C85.9336 63.2031 86.0272 63.3635 86.0508 63.5404C86.0744 63.7174 86.0261 63.8963 85.9164 64.038L83.1593 67.5945C83.0955 67.6764 83.0135 67.7427 82.9196 67.7883C82.8257 67.8338 82.7225 67.8573 82.6179 67.857L82.6174 67.8578Z" fill="white"/>
<path d="M90.4495 92.9824C90.4498 93.829 90.2815 94.6674 89.9542 95.4497C89.627 96.2319 89.1471 96.9428 88.542 97.5416C87.937 98.1404 87.2186 98.6154 86.428 98.9395C85.6373 99.2637 84.7898 99.4306 83.9339 99.4307C83.8779 99.4318 83.8219 99.4296 83.7662 99.424C82.4848 99.3915 81.2417 98.986 80.1922 98.2581C79.1427 97.5302 78.3336 96.5123 77.866 95.3318C77.3985 94.1513 77.2932 92.8606 77.5635 91.6212C77.8338 90.3819 78.4677 89.2489 79.3857 88.3641C80.3037 87.4793 81.4651 86.8819 82.7246 86.6468C83.9842 86.4116 85.2858 86.5491 86.4667 87.042C87.6476 87.535 88.6554 88.3615 89.3638 89.4181C90.0722 90.4747 90.4498 91.7145 90.4495 92.9824Z" fill="#CCCCCC"/>
<path d="M83.2632 127.014C86.8622 127.014 89.7798 124.128 89.7798 120.568C89.7798 117.008 86.8622 114.122 83.2632 114.122C79.6642 114.122 76.7466 117.008 76.7466 120.568C76.7466 124.128 79.6642 127.014 83.2632 127.014Z" fill="#CCCCCC"/>
<path d="M166.659 45.6703H153.263C152.285 45.6703 151.347 45.286 150.655 44.602C149.964 43.9179 149.575 42.9902 149.575 42.0228V32.2355C149.575 32.1927 149.587 32.1507 149.61 32.1144C149.633 32.0781 149.666 32.049 149.705 32.0303C149.744 32.0117 149.788 32.0042 149.831 32.0089C149.874 32.0136 149.915 32.0302 149.949 32.0568L166.802 45.2637C166.84 45.2931 166.867 45.3333 166.88 45.3787C166.894 45.4242 166.893 45.4726 166.877 45.5173C166.861 45.562 166.832 45.6008 166.793 45.6282C166.754 45.6556 166.707 45.6703 166.659 45.6703Z" fill="#CCCCCC"/>
<path d="M90.449 92.9826C90.4493 93.8292 90.281 94.6676 89.9538 95.4498C89.6265 96.2321 89.1466 96.9429 88.5416 97.5417C87.9365 98.1405 87.2181 98.6156 86.4275 98.9397C85.6368 99.2638 84.7893 99.4307 83.9334 99.4308C83.8774 99.432 83.8214 99.4297 83.7657 99.4242C82.9238 97.3471 82.5993 95.1002 82.8194 92.873C83.0395 90.6458 83.7979 88.5037 85.0306 86.6272C86.5464 86.8842 87.9217 87.6631 88.9132 88.826C89.9047 89.989 90.4487 91.4612 90.449 92.9826Z" fill="#E92718"/>
<path d="M97.8306 89.9061C97.8314 89.4223 98.0261 88.9585 98.372 88.6164C98.7179 88.2743 99.1867 88.0817 99.6759 88.0808H109.496C110.07 89.2348 110.477 90.4624 110.707 91.7281H99.6759C99.1871 91.728 98.7183 91.5361 98.3723 91.1945C98.0264 90.8529 97.8316 90.3896 97.8306 89.9061Z" fill="#E92718"/>
<path d="M110.936 94.2371C110.936 95.4689 110.772 96.6954 110.446 97.8843H99.6761C99.1872 97.8843 98.7182 97.6922 98.3725 97.3502C98.0268 97.0082 97.8325 96.5444 97.8325 96.0607C97.8325 95.577 98.0268 95.1132 98.3725 94.7712C98.7182 94.4292 99.1872 94.2371 99.6761 94.2371H110.936Z" fill="#E92718"/>
<path d="M135.233 116.73C134.955 117.181 134.508 117.504 133.989 117.629C133.47 117.753 132.922 117.668 132.467 117.393L108.979 103.222C108.754 103.086 108.557 102.907 108.402 102.696C108.246 102.485 108.133 102.245 108.071 101.991C108.009 101.737 107.998 101.473 108.039 101.215C108.08 100.957 108.171 100.709 108.309 100.486C108.447 100.262 108.628 100.068 108.841 99.914C109.055 99.7598 109.297 99.6488 109.554 99.5872C109.811 99.5257 110.077 99.5148 110.339 99.5551C110.6 99.5955 110.85 99.6864 111.076 99.8225L134.563 113.994C135.019 114.269 135.346 114.711 135.471 115.225C135.597 115.738 135.511 116.28 135.233 116.73Z" fill="#3F3D56"/>
<path d="M111.747 102.559C110.088 105.249 107.66 107.392 104.77 108.717C101.881 110.042 98.6585 110.489 95.5115 110.003C92.3646 109.517 89.4341 108.118 87.0907 105.984C84.7474 103.85 83.0963 101.077 82.3463 98.0149C81.5964 94.9528 81.7812 91.7396 82.8775 88.7814C83.9737 85.8233 85.9322 83.2531 88.5051 81.3959C91.0781 79.5388 94.15 78.478 97.3324 78.3478C100.515 78.2176 103.665 79.0238 106.384 80.6645C110.027 82.8678 112.637 86.4104 113.642 90.5151C114.648 94.6198 113.966 98.9513 111.747 102.559ZM87.6865 88.0427C86.4425 90.06 85.8313 92.3969 85.93 94.7578C86.0287 97.1188 86.833 99.3978 88.2411 101.307C89.6492 103.215 91.598 104.668 93.8409 105.482C96.0838 106.295 98.5201 106.432 100.842 105.876C103.164 105.319 105.266 104.094 106.884 102.356C108.502 100.617 109.563 98.4434 109.931 96.1087C110.3 93.7741 109.961 91.3837 108.956 89.2398C107.952 87.0959 106.327 85.2949 104.288 84.0644C101.552 82.418 98.2676 81.9122 95.1554 82.658C92.0432 83.4038 89.3571 85.3403 87.6865 88.0427Z" fill="#3F3D56"/>
<path d="M163.344 96.8184C167.895 96.8184 171.585 93.169 171.585 88.6672C171.585 84.1655 167.895 80.5161 163.344 80.5161C158.793 80.5161 155.104 84.1655 155.104 88.6672C155.104 93.169 158.793 96.8184 163.344 96.8184Z" fill="#A0616A"/>
<path d="M162.812 134.363C162.653 133.873 162.6 133.356 162.658 132.845C162.715 132.333 162.881 131.84 163.145 131.396C163.408 130.953 163.764 130.57 164.188 130.272C164.611 129.973 165.094 129.767 165.604 129.667C165.766 129.635 165.929 129.616 166.094 129.607L174.774 115.827L166.845 108.37C166.542 108.086 166.299 107.744 166.13 107.366C165.961 106.988 165.87 106.58 165.861 106.167C165.853 105.753 165.927 105.342 166.08 104.957C166.233 104.573 166.461 104.221 166.752 103.924C167.042 103.627 167.39 103.39 167.774 103.227C168.158 103.063 168.57 102.976 168.988 102.972C169.406 102.967 169.821 103.044 170.209 103.199C170.597 103.353 170.949 103.582 171.247 103.873L182.194 114.55L182.216 114.577C182.555 115.087 182.719 115.691 182.683 116.3C182.647 116.908 182.413 117.49 182.017 117.957L169.855 132.185C169.891 132.299 169.921 132.415 169.945 132.532C170.047 133.037 170.04 133.557 169.924 134.058C169.809 134.56 169.587 135.032 169.274 135.443C168.962 135.854 168.564 136.195 168.109 136.443C167.654 136.692 167.151 136.842 166.632 136.885C166.528 136.894 166.423 136.899 166.32 136.899C165.539 136.896 164.78 136.649 164.15 136.193C163.52 135.738 163.052 135.097 162.812 134.363Z" fill="#A0616A"/>
<path d="M149.772 202.111L145.659 202.11L143.702 186.417L149.773 186.417L149.772 202.111Z" fill="#A0616A"/>
<path d="M150.821 206.055L137.559 206.054V205.888C137.559 205.218 137.692 204.554 137.952 203.934C138.211 203.315 138.591 202.752 139.071 202.278C139.55 201.803 140.119 201.427 140.745 201.171C141.372 200.914 142.043 200.782 142.721 200.782H142.721L150.822 200.782L150.821 206.055Z" fill="#2F2E41"/>
<path d="M190.656 196.485L187.122 198.567L177.323 186.073L182.539 183.001L190.656 196.485Z" fill="#A0616A"/>
<path d="M193.597 199.343L182.201 206.055L182.115 205.912C181.769 205.336 181.54 204.698 181.442 204.034C181.345 203.371 181.38 202.695 181.547 202.045C181.714 201.395 182.008 200.783 182.414 200.246C182.819 199.709 183.327 199.255 183.91 198.912L183.91 198.912L190.87 194.813L193.597 199.343Z" fill="#2F2E41"/>
<path d="M143.183 195.199C140.428 163.105 138.789 133.29 148.862 121.128L148.939 121.033L165.891 127.741L165.919 127.801C165.976 127.924 171.614 140.19 170.299 148.441L174.48 167.467L188.114 190.048C188.224 190.23 188.293 190.432 188.318 190.643C188.342 190.853 188.321 191.066 188.256 191.268C188.191 191.47 188.083 191.655 187.94 191.813C187.797 191.97 187.622 192.096 187.426 192.181L181.501 194.759C181.167 194.903 180.791 194.923 180.443 194.816C180.095 194.708 179.798 194.48 179.606 194.174L164.775 170.252L156.398 151.904C156.353 151.805 156.275 151.723 156.178 151.671C156.081 151.619 155.969 151.6 155.86 151.618C155.751 151.635 155.65 151.687 155.574 151.767C155.498 151.846 155.451 151.948 155.439 152.057L150.796 195.232C150.757 195.599 150.582 195.939 150.305 196.185C150.027 196.432 149.667 196.568 149.294 196.568H144.688C144.31 196.565 143.947 196.424 143.669 196.171C143.39 195.918 143.217 195.572 143.183 195.199Z" fill="#2F2E41"/>
<path d="M148.919 121.382L148.838 121.344L148.826 121.256C148.192 116.872 148.942 112.001 151.053 106.778C152.094 104.222 154.029 102.12 156.504 100.857C158.98 99.5932 161.832 99.2515 164.541 99.8938C166.102 100.274 167.566 100.971 168.84 101.94C170.114 102.909 171.171 104.129 171.943 105.524C172.705 106.904 173.17 108.425 173.307 109.992C173.444 111.558 173.251 113.136 172.739 114.625C170.077 122.325 166.624 129.529 166.59 129.601L166.517 129.751L148.919 121.382Z" fill="#E92718"/>
<path d="M130.423 110.462C130.832 110.144 131.303 109.914 131.807 109.788C132.312 109.662 132.837 109.643 133.349 109.732C133.861 109.821 134.349 110.016 134.78 110.304C135.21 110.593 135.575 110.968 135.848 111.405C135.935 111.544 136.011 111.688 136.076 111.838L152.165 115.054L156.449 105.097C156.613 104.716 156.851 104.372 157.15 104.083C157.449 103.794 157.803 103.567 158.192 103.414C158.58 103.261 158.995 103.186 159.413 103.193C159.831 103.199 160.244 103.288 160.627 103.453C161.01 103.619 161.356 103.857 161.645 104.156C161.935 104.454 162.161 104.807 162.312 105.192C162.463 105.578 162.535 105.989 162.525 106.402C162.514 106.816 162.421 107.223 162.25 107.6L155.973 121.483L155.955 121.512C155.591 122.005 155.076 122.368 154.487 122.548C153.898 122.728 153.266 122.715 152.685 122.511L134.952 116.225C134.857 116.299 134.758 116.367 134.655 116.431C134.213 116.702 133.718 116.877 133.203 116.946C132.687 117.014 132.163 116.974 131.664 116.828C131.165 116.682 130.704 116.434 130.309 116.099C129.914 115.764 129.595 115.351 129.373 114.885C129.328 114.792 129.287 114.697 129.251 114.6C128.98 113.876 128.948 113.086 129.159 112.343C129.37 111.6 129.812 110.942 130.423 110.462Z" fill="#A0616A"/>
<path d="M193.114 97.3963C192.32 96.0052 191.164 94.731 189.635 94.2167C187.661 93.5526 185.523 94.2597 183.493 94.7318C181.929 95.0956 180.295 95.3182 178.718 95.0113C177.142 94.7043 175.621 93.7969 174.904 92.3748C173.849 90.2828 174.738 87.7881 174.674 85.4511C174.641 84.1789 174.316 82.9307 173.725 81.8006C173.133 80.6705 172.29 79.688 171.258 78.9272C170.227 78.1663 169.035 77.6469 167.771 77.4082C166.507 77.1695 165.205 77.2176 163.963 77.549C162.019 76.9942 160.259 76.9428 159.057 78.4209C157.544 78.4209 156.094 79.0153 155.024 80.0734C153.954 81.1314 153.354 82.5664 153.354 84.0628H158.807C158.549 85.4383 158.844 86.8594 159.631 88.0223C160.593 89.4215 162.268 90.4336 162.59 92.0958C162.902 93.7065 161.795 95.2348 160.634 96.4057C159.473 97.5765 158.126 98.7367 157.764 100.337C157.541 101.552 157.794 102.805 158.469 103.843C159.144 104.869 159.981 105.78 160.947 106.543C165.304 110.235 170.482 112.855 176.058 114.19C179.985 115.125 184.28 115.367 187.925 113.647C189.383 112.959 190.683 111.981 191.743 110.775C192.804 109.569 193.602 108.161 194.088 106.637C194.575 105.113 194.74 103.506 194.572 101.916C194.404 100.327 193.908 98.7881 193.114 97.3963Z" fill="#2F2E41"/>
<path d="M194.345 206.4H130.598C130.509 206.4 130.424 206.365 130.361 206.303C130.298 206.241 130.263 206.156 130.263 206.068C130.263 205.98 130.298 205.896 130.361 205.834C130.424 205.771 130.509 205.736 130.598 205.736H194.345C194.434 205.736 194.519 205.771 194.582 205.834C194.645 205.896 194.68 205.98 194.68 206.068C194.68 206.156 194.645 206.241 194.582 206.303C194.519 206.365 194.434 206.4 194.345 206.4Z" fill="#CCCCCC"/>
</svg>
