<svg width="40" height="40" viewBox="0 0 40 40" fill="none" xmlns="http://www.w3.org/2000/svg">
<circle cx="20" cy="20" r="20" fill="#1695E9"/>
<path d="M19.716 24.064C19.376 24.064 19.0813 23.9507 18.832 23.724C18.6053 23.4973 18.4693 23.1687 18.424 22.738L17.166 9.512L17.132 9.172C17.132 8.46933 17.37 7.914 17.846 7.506C18.3447 7.07533 18.968 6.86 19.716 6.86C20.5093 6.86 21.1553 7.10933 21.654 7.608C22.1527 8.084 22.3567 8.73 22.266 9.546L21.008 22.738C20.9627 23.1687 20.8153 23.4973 20.566 23.724C20.3393 23.9507 20.056 24.064 19.716 24.064ZM19.716 31.204C18.9907 31.204 18.39 30.966 17.914 30.49C17.438 29.9913 17.2 29.3793 17.2 28.654C17.2 27.9287 17.438 27.328 17.914 26.852C18.39 26.3533 18.9907 26.104 19.716 26.104C20.4413 26.104 21.042 26.3533 21.518 26.852C21.994 27.328 22.232 27.9287 22.232 28.654C22.232 29.3793 21.994 29.9913 21.518 30.49C21.042 30.966 20.4413 31.204 19.716 31.204Z" fill="white"/>
</svg>
